<svg width="613" height="10" viewBox="0 0 613 10" fill="none" xmlns="http://www.w3.org/2000/svg">
<path d="M291.2 7.35587C289.552 7.42101 287.393 7.35137 285.751 7.25578C285.237 7.22613 285.497 7.09361 285.142 7.06718C284.448 7.01565 283.801 7.08065 283.115 7.01927C282.887 6.99828 283.17 6.78836 282.932 6.77116C281.625 6.67839 280.389 6.73186 279.065 6.68724C272.544 6.46709 266.134 6.38829 259.533 6.29265C257.357 6.26129 254.711 6.07079 252.463 6.1541C252.201 6.16401 252.357 6.34826 252.307 6.36345C251.524 6.59592 251.785 6.22396 251.273 6.17454C249.244 5.97941 246.987 5.96244 245.034 6.03355C244.203 6.06434 245.037 6.43031 244.2 6.2249C244.142 6.21102 244.353 6.01536 244.125 5.99449C243.608 5.94755 242.628 5.98253 242.227 5.96702C241.455 5.93616 241.328 5.93813 240.598 5.9359C239.6 5.93115 238.413 5.83388 237.342 5.87822C237.113 5.88826 237.416 6.08884 237.051 6.12297C236.687 6.15705 235.721 6.14004 235.396 6.09276C235.071 6.04545 235.209 5.8878 235.152 5.85167C234.678 5.54668 233.561 5.96909 233.418 5.97954C230.799 6.15753 228.553 5.9169 226.094 5.91759C224.228 5.91862 222.232 5.99806 220.456 5.98717C218.34 5.97341 216.547 5.86472 214.492 5.88341C214.275 5.88515 214.529 6.12098 214.264 6.12358C211.45 6.15102 208.654 6.12531 205.852 5.96611C205.571 5.94993 205.933 5.74288 205.652 5.71434C203.933 5.54418 201.213 5.13541 200.191 6.03691C199.027 6.00171 197.613 5.96534 196.571 5.78361C195.899 5.66665 196.552 5.44109 195.727 5.53734C195.54 5.55878 195.783 5.75632 195.503 5.77354C194.328 5.84586 193.044 5.78165 191.882 5.88371C191.646 5.90494 191.71 6.08194 191.643 6.11381C191.08 6.37195 190.143 5.94524 189.938 5.91423C188.382 5.68301 187.246 5.774 185.797 5.76836C185.46 5.76695 185.858 6.0047 185.534 6.01188C183.855 6.04596 182.117 6.02553 180.473 5.92003C180.107 5.89599 180.443 5.69346 180.269 5.67161C179.498 5.57774 179.327 5.96026 178.589 5.87761C178.433 5.86068 178.521 5.6873 178.492 5.66826C178.047 5.36935 177.661 5.79288 177.547 5.80223C176.1 5.92999 175.175 5.48785 173.777 5.55046C173.61 5.5584 173.987 5.77777 173.517 5.78667C170.386 5.84723 167.074 5.78696 163.974 5.6115C163.492 5.58451 163.836 5.41971 163.806 5.3994C163.312 5.08198 162.992 5.50728 162.835 5.5233C161.595 5.6386 160.437 5.28193 159.594 5.7885C154.344 5.6127 149.118 5.89717 143.911 5.44334C143.845 5.43809 143.964 5.22863 143.831 5.21904C142.241 5.10143 142.547 5.42697 141.494 5.82512C141.229 5.92509 140.423 5.4444 140.351 5.40916C140.091 5.27932 140.361 4.9677 140.274 4.94255C139.554 4.74509 139.671 5.77565 138.699 5.77598C138.669 5.77427 138.797 5.58458 138.715 5.56572C138.462 5.50651 138.21 5.58188 137.963 5.51659C137.395 5.3655 137.193 4.86473 136.326 5.15617C136.217 5.194 136.384 5.77858 135.516 5.75096C135.171 5.73946 133.64 5.74948 133.211 5.71159C132.782 5.67376 133.076 5.48538 133.046 5.47722C131.891 5.22812 132.329 5.12488 131.75 4.75609C131.172 4.38869 131.332 5.26497 131.097 5.36278C130.86 5.46031 130.014 5.25478 129.806 5.18334C129.598 5.11186 129.857 4.99216 129.672 4.95171C128.446 4.68744 129.134 5.38666 128.73 5.52574C127.778 5.85506 127.036 5.2052 126.164 5.14153C125.928 5.12433 126.121 5.27234 125.911 5.28618C125.079 5.33904 124.578 5.13627 123.632 5.32219C123.477 5.35249 122.712 5.7432 122.216 5.45647C122.146 5.41512 122.346 5.25318 121.991 5.2169C121.461 5.16246 120.507 5.12707 119.937 5.1812C119.517 5.22125 119.999 5.48809 119.47 5.4052C119.235 5.36818 119.67 5.21208 119.229 5.15556C118.789 5.09907 117.665 5.10592 117.238 5.11131C116.811 5.11682 117.045 5.31924 117.01 5.33287C116.802 5.41098 115.982 5.50859 115.91 5.50835C112.259 5.53306 108.892 5.19187 105.337 5.30479C105.058 5.31336 105.244 5.52681 105.202 5.53032C104.247 5.61975 105 5.05224 104.333 4.86229C104.429 5.29544 104.035 5.21701 103.362 5.26451C103.038 5.28775 103.215 5.45547 103.185 5.47264C102.705 5.72738 102.37 5.39835 102.284 5.33104C101.965 5.08344 101.619 5.376 101.402 5.2105C101.185 5.04623 101.684 4.80271 101.039 4.80583C100.858 4.96089 101.337 5.36608 100.847 5.43175C98.9987 5.68015 95.5488 5.36223 94.0628 5.32921C92.5797 5.29621 92.1007 5.32482 91.2365 5.26878C89.6756 5.16747 90.2476 5.46809 89.2783 5.6057C88.3063 5.74329 88.7788 5.0036 88.6391 4.84459C88.5019 4.68565 88.3521 4.84926 88.1815 4.76189C88.0114 4.67453 88.3796 4.56642 87.9796 4.53362C87.5794 4.50085 86.4851 4.78361 86.3433 4.94988C86.0434 5.30212 86.5365 5.67181 85.4775 5.54192C85.4166 5.53421 85.6142 5.33971 85.381 5.32005C83.5287 5.17032 81.6044 5.16104 79.7544 5.02861C79.5 5.0101 79.7274 4.79373 79.5794 4.7805C78.0374 4.64211 78.5886 5.00694 77.7435 5.41222C77.9332 4.87288 77.4659 4.54291 76.2956 4.53972C75.5921 4.53762 75.7132 4.77317 75.2582 4.9392C75.1216 4.98924 74.6239 4.8275 74.5337 4.93828C74.2363 5.3004 74.7051 5.70577 73.4985 5.54436C73.4456 5.53669 73.6141 5.33847 73.4312 5.32646C72.2488 5.24789 72.1074 5.62666 70.8293 5.67253C69.8275 5.70852 68.0458 5.47755 66.9051 5.43999C66.9291 4.83361 65.8516 4.97247 65.4146 5.39055C64.6742 5.37343 63.8747 5.39707 63.1592 5.33928C62.9129 5.31958 63.0747 5.14402 63.0437 5.12505C62.5675 4.82747 62.2456 5.23422 62.0859 5.25017C60.354 5.40518 58.943 5.0969 57.2903 5.39818C57.2316 5.40903 57.1365 5.83024 56.6947 5.52269C56.6662 5.50149 57.212 5.30985 56.4345 5.29503C55.6569 5.28018 54.191 5.05438 53.1115 5.24956C52.8502 5.29655 52.1894 5.63848 51.6591 5.37132C51.5884 5.33505 51.6658 5.21424 51.5638 5.14702C51.234 4.93282 51.054 5.35856 50.6665 4.99687C50.279 4.63521 49.4729 4.36434 48.3842 4.61388C48.3495 4.62113 48.0918 4.95857 47.7495 4.95323C47.2029 4.94443 46.427 4.87413 45.8563 4.87633C45.5831 4.8775 45.758 5.08703 45.7105 5.09087C43.8733 5.20828 42.5657 5.02149 40.5975 4.94042C40.2367 4.92514 39.1998 5.21087 38.5014 4.98497C37.7344 4.73769 38.5226 3.70902 36.7596 3.95409C36.0486 4.05212 35.1484 5.35717 33.8706 4.68102C31.3924 4.84856 29.1005 4.50251 26.6155 4.74175C26.5037 4.75235 26.1503 5.11658 25.8876 5.11162C25.4976 5.10355 25.2834 4.93332 25.0049 4.92211C23.838 4.87083 22.7701 5.01648 21.6449 4.99382C21.2177 4.98559 21.3671 4.80957 20.8576 4.79973C20.3484 4.79006 20.0088 5.02184 19.3188 4.9099C18.7977 4.82457 18.2766 4.3508 17.585 4.29558C17.5586 4.7629 17.0835 4.75327 16.2391 4.87663C16.0768 4.90057 16.2509 5.06322 16.1741 5.08293C15.8616 5.16676 15.5725 5.03196 15.2758 5.12322C15.2036 5.14513 15.2002 5.30472 15.1412 5.33165C14.6394 5.56668 13.8128 5.20769 13.6708 5.14519C13.1268 4.90781 12.8725 5.11538 12.4551 5.0219C12.0384 4.92843 12.6615 4.81159 12.1747 4.75487C11.1659 4.63755 9.86956 4.66333 8.84495 4.65599C8.43609 4.65405 8.71497 4.86708 8.65653 4.87175C7.81113 4.92578 6.95625 4.69918 6.48749 5.12352C5.90129 4.02633 5.97774 5.22994 4.76932 5.0103C4.67416 4.99254 4.55298 4.47368 4.91848 4.39751C5.28386 4.32141 5.83808 4.4836 6.34506 4.36486C6.46515 4.33699 7.1529 3.85079 7.24676 3.82134C7.98187 3.59116 8.08599 4.36652 8.12491 4.40911C8.56589 4.86868 9.4064 4.3449 9.62775 4.3087C10.6403 4.14287 11.5006 4.25191 12.3474 4.13353C12.9014 4.05703 12.9555 3.54914 13.3905 3.56469C14.8363 3.61607 15.341 4.32458 16.7034 3.71026C16.9956 3.57923 16.7052 3.02413 17.7521 3.46062C17.8178 3.48814 18.595 3.88745 19.0441 3.63488C19.1004 3.60303 19.0987 3.44125 19.173 3.42766C19.6715 3.33976 20.0039 3.46864 20.5469 3.40691C21.0898 3.34519 21.7428 3.25317 22.3626 3.30804C22.7362 3.34085 23.2157 3.64226 23.3944 3.71605C23.8994 3.92863 24.4409 3.58009 24.7537 3.83751C25.0693 4.09623 24.4525 4.48914 25.2797 4.6563C25.3104 4.23599 25.3807 3.80458 25.43 3.38189C27.243 3.39669 29.0269 3.5326 30.8459 3.51403C31.0714 3.51131 30.8408 3.28535 31.0825 3.2766C32.1025 3.24071 32.9933 3.40179 34.0512 3.33764C34.87 3.28712 35.7678 3.04788 36.6239 2.9876C37.1469 3.46856 38.4174 3.30528 39.3403 3.34923C39.6636 3.36442 39.6419 3.49287 39.8719 3.53478C40.7392 3.68977 40.3328 3.26475 40.5706 3.19787C41.5908 2.91241 41.6781 3.87441 42.8809 3.85064C42.9446 3.8497 43.7235 3.33692 43.8308 3.30498C44.5125 3.09676 43.9437 3.48347 44.3703 3.52135C45.1492 3.59059 45.6905 3.71305 46.6044 3.56286C46.8709 3.51837 47.5101 3.19876 48.0276 3.44598C48.0957 3.47835 48.058 3.64784 48.1128 3.65777C49.1047 3.82323 49.1307 3.29065 49.6975 3.11028C50.2644 2.92995 51.14 3.2976 51.3181 3.40356C51.7843 3.67767 50.9609 3.5207 50.9357 3.5476C50.6392 3.86771 51.2777 3.8126 51.7656 3.83965C51.8363 4.36184 52.5186 4.3305 52.2714 3.86559C52.2433 3.81481 51.8636 3.86351 51.7656 3.83965C52.1939 3.32731 52.9438 3.26169 53.772 3.74047C54.1597 3.96486 53.7932 4.2265 54.9709 4.13079C55.5054 4.08758 55.2989 3.72802 55.7706 3.63C56.8482 3.40633 58.2485 3.74174 59.3594 3.68889C59.7626 3.66971 59.3699 3.47289 59.6454 3.45299C60.3768 3.39958 61.0217 3.54726 61.7561 3.47161C61.8227 3.46451 61.6601 3.25848 61.8885 3.25585C63.6199 3.23192 65.1276 3.36389 66.9353 3.36755C67.8088 3.36922 69.3704 3.25559 70.2752 3.27843C71.8434 3.31681 73.7727 3.61641 75.1124 3.54363C75.9861 3.49704 75.7944 3.29097 76.1689 3.15057C76.8913 2.8784 78.1702 3.36591 78.3424 3.4414C78.3476 3.4439 77.5957 3.49248 77.9969 3.59826C78.2302 3.81867 78.3339 3.44235 78.3424 3.4414C78.4554 3.49016 79.9575 3.53694 80.2557 3.49755C80.4178 3.47602 80.3271 3.28078 80.4116 3.27325C82.42 3.09852 84.4319 3.0489 86.4689 3.14019C86.5048 3.14413 86.4508 3.36252 86.5351 3.36907C87.7143 3.46617 88.4695 3.19901 89.4421 3.0404C90.4145 2.88185 91.1858 2.93495 91.7614 3.30987C92.4952 3.26266 93.5478 3.42841 94.1536 3.52898C94.7593 3.62955 94.8439 3.20444 94.8972 3.19604C96.5596 2.92705 97.5206 3.17037 99.2453 3.20824C100.065 3.22698 101.692 3.16531 102.58 3.11883C103.281 3.08138 103.704 3.181 104.35 3.1173C104.438 3.10879 104.35 2.91951 104.376 2.91222C105.098 2.68576 104.751 3.14849 104.9 3.23113C105.44 3.53166 105.774 3.69172 106.698 3.55034C106.911 3.51797 107.532 2.8517 107.92 2.81274C108.425 2.7633 108.235 3.00212 108.764 2.94427C108.809 2.93954 108.8 2.7922 109.126 2.7987C110.641 2.82692 112.293 2.91265 113.868 2.89788C114.083 2.89643 113.807 2.66274 114.118 2.65679C115.576 2.62909 117.174 2.63774 118.595 2.74712C118.945 2.77478 118.725 2.93841 118.801 2.98699C119.267 3.28095 119.928 2.85383 120.037 2.8457C122.638 2.64044 124.629 3.02698 127.28 2.84295C127.424 2.83215 128.535 2.37426 129.031 2.76696C129.065 2.79309 129.555 3.19486 129.989 2.92016C130.015 2.90297 129.71 2.69614 130.243 2.71722C130.776 2.73825 131.634 2.60013 132.367 2.82739C132.599 2.89898 133.148 3.29975 133.84 2.98028C133.885 2.95798 134.953 2.2356 135.335 2.734C135.397 2.81604 135.332 3.34347 136.158 3.07305C136.316 3.02063 136.029 2.90298 136.445 2.82952C137.082 2.7163 137.926 2.85757 138.709 2.62261C138.846 2.58102 139.427 2.22303 139.894 2.49475C139.967 2.5373 139.828 2.71338 140.074 2.73309C141.246 2.82761 142.472 2.70983 143.661 2.83166C144.082 2.87447 143.867 3.15912 144.306 3.2354C144.745 3.31166 145.63 3.38502 146.089 3.25494C146.549 3.1248 146.047 2.67112 146.735 2.63482C149.728 2.47715 152.693 2.74329 155.681 2.78222C156.125 2.78803 155.757 2.6257 156.41 2.62261C158.819 2.61054 162.977 2.45833 165.066 2.80328C166.741 3.07956 164.634 3.2899 165.913 3.40234C166.531 3.45597 167.199 2.92852 167.348 2.91192C168.804 2.74324 169.815 2.97689 171.126 2.90521C171.397 2.89033 171.131 2.67655 171.362 2.66625C172.148 2.62918 172.975 2.7246 173.727 2.70715C174.064 2.69882 174.002 2.53555 174.312 2.54815C175.055 2.57642 175.711 2.64506 176.435 2.79809C176.501 2.81203 176.056 3.01514 176.606 3.0227C177.495 3.03435 178.599 3.18531 179.622 3.02941C179.925 2.98251 179.937 2.60935 180.589 2.86706C180.726 2.92088 180.552 3.36897 181.312 2.9818C181.439 2.91747 182.716 2.39525 183.343 2.73187C183.508 2.82046 183.93 3.18713 184.295 3.12951C184.344 3.12031 184.146 2.91987 184.449 2.90032C185.515 2.83491 186.632 2.85629 187.727 2.79351C188.019 2.77635 187.584 2.56894 188.019 2.54998C189.218 2.49756 190.714 2.55037 191.887 2.61529C192.319 2.63962 192.02 2.81143 192.051 2.83013C192.557 3.13426 192.856 2.72376 193.024 2.69982C194.067 2.5565 194.862 2.74932 195.824 2.6983C196.09 2.68473 195.901 2.489 195.954 2.47155C196.502 2.30103 196.094 2.65253 196.441 2.69128C197.413 2.80099 198.496 2.78526 199.479 2.76025C199.84 2.75077 199.434 2.52382 199.758 2.51794C201.676 2.47883 203.67 2.50055 205.541 2.62567C205.893 2.64964 205.672 2.8244 205.745 2.86431C206.251 3.14357 206.993 2.76266 207.164 2.72637C207.94 2.5607 208.241 2.71524 208.927 2.68639C212.275 2.54277 216.41 2.64513 219.57 2.70837C223.689 2.78975 226.885 2.95601 230.812 2.91283C231.062 2.91031 230.81 2.67782 231.025 2.67266C233.804 2.61662 236.539 2.70746 239.322 2.64031C239.551 2.63522 239.222 2.41482 239.588 2.39923C240.34 2.3657 241.293 2.37768 242.053 2.44805C242.424 2.48196 241.927 2.67108 242.3 2.70135C243.169 2.77225 244.101 2.78795 244.994 2.75262C245.374 2.7371 244.801 2.51169 245.295 2.50909C248.659 2.48673 251.963 2.4479 255.362 2.7398C255.596 2.75985 255.8 3.21797 256.296 3.13012C256.333 3.00298 256.331 2.85342 256.347 2.71752C261.245 2.64432 266.092 2.80314 271.003 2.82769C271.21 2.82867 270.852 2.58594 271.253 2.5866C273.574 2.59019 275.827 2.52295 278.2 2.76421C278.436 2.78781 278.315 3.21485 279.009 3.15026C279.131 3.13848 280.176 3.08152 280.446 2.98882C280.483 2.97484 280.292 2.77552 280.629 2.76971C282.586 2.73944 284.637 2.78494 286.591 2.90673C286.907 2.92677 286.571 3.13903 286.795 3.15514C288.389 3.26782 290.121 3.10646 291.644 3.29919C292.663 3.42895 292.285 3.79587 292.827 4.15703C292.904 4.20799 293.535 4.21606 293.567 4.4262C293.651 4.9546 293.345 5.53319 293.471 6.09642C293.497 6.21773 294.342 6.08707 293.842 6.38023C293.807 6.39985 293.194 6.49715 293.043 6.5966C292.938 6.66536 293.128 6.87906 292.913 6.96708C292.699 7.05502 292.463 6.87588 292.108 6.97929C291.753 7.08398 291.909 7.3271 291.2 7.35587ZM96.8811 3.97851C97.4421 4.18266 97.5248 3.43492 96.9181 3.61382C96.8888 3.62336 96.8522 3.96849 96.8811 3.97851ZM29.0166 4.09661C29.7499 4.42641 30.2517 3.94147 29.7344 3.68676C29.2172 3.43232 28.7933 3.99663 29.0166 4.09661ZM21.4127 4.33739C22.2697 4.59743 22.4047 3.53711 21.4867 3.75146C21.4334 3.76357 21.3625 4.32229 21.4127 4.33739ZM290.316 4.25988C290.324 4.26981 290.777 4.27948 290.788 4.26964C291.03 4.03216 290.123 4.01297 290.316 4.25988ZM13.8671 4.59954C14.1347 4.74297 14.905 4.57739 14.5725 4.39904C14.305 4.25555 13.5339 4.42112 13.8671 4.59954ZM126.141 4.77654C126.149 4.78768 126.475 4.79771 126.468 4.73473C126.446 4.53187 125.993 4.58912 126.141 4.77654ZM1.04249 4.61174C2.9373 4.65165 4.08611 5.52753 2.0227 5.4287C1.64904 5.41081 2.82801 5.14939 2.35243 5.07042C1.48225 4.92656 0.904293 5.4765 0.0162971 5.18181C-0.14448 5.12787 0.934398 4.60752 1.04587 4.61052C1.04471 4.61093 1.04362 4.61134 1.04249 4.61174ZM97.2041 4.87663C97.2154 4.88652 97.6655 4.8959 97.6763 4.8861C97.9201 4.64871 97.0132 4.62968 97.2041 4.87663ZM145.116 5.23888C145.14 5.25995 146.185 5.27965 146.219 5.26024C146.764 4.87205 144.652 4.83106 145.116 5.23888ZM66.8871 5.42381C66.3959 5.66262 65.8084 5.69074 65.4168 5.39085C65.9049 5.40677 66.3963 5.40912 66.8871 5.42381ZM321.8 2.40672C323.448 2.34159 325.607 2.41123 327.249 2.50682C327.763 2.53647 327.503 2.66899 327.858 2.69542C328.552 2.74694 329.199 2.68195 329.885 2.74333C330.113 2.76432 329.83 2.97423 330.068 2.99144C331.375 3.08421 332.611 3.03074 333.935 3.07536C340.456 3.29551 346.866 3.37431 353.467 3.46995C355.643 3.50131 358.289 3.69181 360.537 3.6085C360.799 3.59859 360.643 3.41434 360.693 3.39915C361.476 3.16667 361.215 3.53864 361.727 3.58806C363.756 3.78318 366.013 3.80015 367.966 3.72905C368.797 3.69825 367.963 3.33229 368.8 3.5377C368.858 3.55158 368.647 3.74724 368.875 3.76811C369.392 3.81504 370.372 3.78007 370.773 3.79557C371.545 3.82644 371.672 3.82447 372.402 3.8267C373.4 3.83145 374.587 3.92871 375.658 3.88438C375.887 3.87434 375.584 3.67376 375.949 3.63963C376.313 3.60555 377.279 3.62256 377.604 3.66984C377.929 3.71715 377.791 3.8748 377.848 3.91093C378.322 4.21592 379.439 3.79351 379.582 3.78306C382.201 3.60507 384.447 3.8457 386.906 3.84501C388.772 3.84398 390.768 3.76454 392.544 3.77543C394.66 3.78919 396.453 3.89788 398.508 3.87919C398.725 3.87745 398.471 3.64162 398.736 3.63902C401.55 3.61158 404.346 3.63728 407.148 3.79649C407.429 3.81266 407.067 4.01972 407.348 4.04826C409.067 4.21842 411.787 4.62719 412.809 3.72569C413.973 3.76089 415.387 3.79726 416.429 3.97898C417.101 4.09594 416.448 4.32151 417.273 4.22526C417.46 4.20382 417.217 4.00628 417.497 3.98906C418.672 3.91674 419.956 3.98095 421.118 3.87889C421.354 3.85766 421.29 3.68066 421.357 3.64879C421.92 3.39065 422.857 3.81736 423.062 3.84837C424.618 4.07959 425.754 3.9886 427.203 3.99424C427.54 3.99565 427.142 3.7579 427.466 3.75071C429.145 3.71664 430.883 3.73707 432.527 3.84257C432.893 3.86661 432.557 4.06913 432.731 4.09098C433.502 4.18486 433.673 3.80234 434.411 3.88499C434.567 3.90192 434.479 4.0753 434.508 4.09434C434.953 4.39324 435.339 3.96972 435.453 3.96037C436.9 3.83261 437.825 4.27474 439.223 4.21214C439.39 4.2042 439.013 3.98483 439.483 3.97593C442.614 3.91537 445.926 3.97564 449.026 4.1511C449.508 4.17809 449.164 4.34288 449.194 4.3632C449.688 4.68062 450.008 4.25531 450.165 4.2393C451.405 4.124 452.563 4.48067 453.406 3.9741C458.656 4.1499 463.882 3.86543 469.089 4.31925C469.155 4.32451 469.036 4.53397 469.169 4.54356C470.759 4.66117 470.453 4.33563 471.506 3.93748C471.771 3.8375 472.577 4.3182 472.649 4.35343C472.909 4.48328 472.639 4.7949 472.726 4.82005C473.446 5.0175 473.329 3.98695 474.301 3.98661C474.331 3.98833 474.203 4.17802 474.285 4.19688C474.538 4.25609 474.79 4.18072 475.037 4.24601C475.605 4.3971 475.807 4.89786 476.674 4.60642C476.783 4.5686 476.616 3.98402 477.483 4.01164C477.829 4.02314 479.36 4.01312 479.789 4.05101C480.218 4.08884 479.924 4.27722 479.954 4.28538C481.109 4.53448 480.671 4.63772 481.25 5.00651C481.828 5.37391 481.668 4.49763 481.903 4.39982C482.14 4.30229 482.986 4.50782 483.194 4.57926C483.402 4.65074 483.143 4.77044 483.328 4.81089C484.554 5.07516 483.866 4.37594 484.27 4.23686C485.222 3.90754 485.964 4.55739 486.836 4.62107C487.072 4.63827 486.879 4.49026 487.089 4.47642C487.921 4.42356 488.422 4.62633 489.368 4.44041C489.523 4.41011 490.288 4.0194 490.784 4.30613C490.854 4.34748 490.654 4.50942 491.009 4.54569C491.539 4.60013 492.493 4.63553 493.063 4.5814C493.483 4.54135 493.001 4.27451 493.53 4.3574C493.765 4.39441 493.33 4.55052 493.771 4.60703C494.211 4.66353 495.335 4.65667 495.762 4.65128C496.189 4.64578 495.955 4.44336 495.99 4.42973C496.198 4.35161 497.018 4.25401 497.09 4.25425C500.741 4.22954 504.108 4.57073 507.663 4.4578C507.942 4.44924 507.756 4.23579 507.798 4.23228C508.753 4.14285 508 4.71035 508.667 4.90031C508.571 4.46716 508.965 4.54559 509.638 4.49809C509.962 4.47484 509.785 4.30713 509.815 4.28996C510.295 4.03522 510.63 4.36425 510.716 4.43156C511.035 4.67916 511.381 4.3866 511.598 4.5521C511.815 4.71637 511.316 4.95988 511.961 4.95676C512.142 4.80171 511.663 4.39652 512.153 4.33085C514.001 4.08245 517.451 4.40037 518.937 4.43339C520.42 4.46639 520.899 4.43778 521.763 4.49381C523.324 4.59513 522.752 4.29451 523.722 4.1569C524.694 4.01931 524.221 4.759 524.361 4.91801C524.498 5.07695 524.648 4.91334 524.819 5.00071C524.989 5.08806 524.62 5.19618 525.02 5.22898C525.421 5.26175 526.515 4.97899 526.657 4.81272C526.957 4.46048 526.464 4.09078 527.523 4.22068C527.583 4.22839 527.386 4.42289 527.619 4.44254C529.471 4.59228 531.396 4.60156 533.246 4.73399C533.5 4.7525 533.273 4.96887 533.421 4.98209C534.963 5.12049 534.411 4.75566 535.257 4.35038C535.067 4.88972 535.534 5.21969 536.704 5.22288C537.408 5.22498 537.287 4.98942 537.742 4.8234C537.878 4.77336 538.376 4.9351 538.466 4.82432C538.764 4.4622 538.295 4.05683 539.501 4.21824C539.554 4.22591 539.386 4.42413 539.569 4.43614C540.751 4.51471 540.893 4.13594 542.171 4.09007C543.173 4.05408 544.954 4.28505 546.095 4.32261C546.071 4.92899 547.148 4.79013 547.585 4.37205C548.326 4.38917 549.125 4.36553 549.841 4.42332C550.087 4.44302 549.925 4.61858 549.956 4.63755C550.432 4.93513 550.754 4.52838 550.914 4.51243C552.646 4.35742 554.057 4.6657 555.71 4.36442C555.768 4.35357 555.863 3.93236 556.305 4.23991C556.334 4.26111 555.788 4.45275 556.565 4.46757C557.343 4.48242 558.809 4.70822 559.889 4.51304C560.15 4.46605 560.811 4.12412 561.341 4.39128C561.412 4.42755 561.334 4.54836 561.436 4.61558C561.766 4.82978 561.946 4.40404 562.333 4.76573C562.721 5.12739 563.527 5.39825 564.616 5.14872C564.65 5.14146 564.908 4.80403 565.251 4.80937C565.797 4.81817 566.573 4.88847 567.144 4.88627C567.417 4.8851 567.242 4.67556 567.289 4.67173C569.127 4.55432 570.434 4.74111 572.403 4.82218C572.763 4.83746 573.8 4.55173 574.499 4.77763C575.266 5.02491 574.477 6.05358 576.24 5.80851C576.951 5.71048 577.852 4.40543 579.129 5.08158C581.608 4.91404 583.899 5.26009 586.385 5.02085C586.496 5.01025 586.85 4.64602 587.112 4.65098C587.502 4.65904 587.717 4.82928 587.995 4.84049C589.162 4.89177 590.23 4.74612 591.355 4.76878C591.782 4.77701 591.633 4.95303 592.142 4.96287C592.652 4.97254 592.991 4.74075 593.681 4.8527C594.202 4.93803 594.723 5.41179 595.415 5.46702C595.441 4.9997 595.916 5.00932 596.761 4.88596C596.923 4.86203 596.749 4.69938 596.826 4.67967C597.138 4.59583 597.428 4.73064 597.724 4.63938C597.796 4.61747 597.8 4.45787 597.859 4.43095C598.361 4.19592 599.187 4.55491 599.329 4.61741C599.873 4.85479 600.128 4.64722 600.545 4.7407C600.962 4.83417 600.339 4.95101 600.825 5.00773C601.834 5.12505 603.13 5.09927 604.155 5.10661C604.564 5.10855 604.285 4.89552 604.343 4.89085C605.189 4.83682 606.044 5.06342 606.513 4.63908C607.099 5.73627 607.022 4.53266 608.231 4.7523C608.326 4.77006 608.447 5.28892 608.082 5.36509C607.716 5.44119 607.162 5.279 606.655 5.39774C606.535 5.42561 605.847 5.91181 605.753 5.94126C605.018 6.17143 604.914 5.39608 604.875 5.35349C604.434 4.89391 603.594 5.4177 603.372 5.45389C602.36 5.61973 601.499 5.51069 600.653 5.62906C600.099 5.70557 600.044 6.21346 599.61 6.19791C598.164 6.14653 597.659 5.43802 596.297 6.05234C596.004 6.18336 596.295 6.73847 595.248 6.30198C595.182 6.27446 594.405 5.87514 593.956 6.12772C593.9 6.15957 593.901 6.32134 593.827 6.33493C593.328 6.42284 592.996 6.29396 592.453 6.35569C591.91 6.41741 591.257 6.50943 590.637 6.45456C590.264 6.42175 589.784 6.12034 589.606 6.04654C589.101 5.83396 588.559 6.18251 588.246 5.92508C587.931 5.66637 588.548 5.27346 587.72 5.1063C587.69 5.52661 587.619 5.95802 587.57 6.38071C585.757 6.36591 583.973 6.23 582.154 6.24857C581.929 6.25129 582.159 6.47725 581.918 6.486C580.897 6.52189 580.007 6.36081 578.949 6.42496C578.13 6.47548 577.232 6.71472 576.376 6.775C575.853 6.29404 574.583 6.45732 573.66 6.41336C573.336 6.39818 573.358 6.26972 573.128 6.22782C572.261 6.07283 572.667 6.49784 572.429 6.56473C571.409 6.85019 571.322 5.88819 570.119 5.91196C570.055 5.9129 569.276 6.42568 569.169 6.45761C568.487 6.66584 569.056 6.27913 568.63 6.24125C567.851 6.17201 567.31 6.04955 566.396 6.19974C566.129 6.24423 565.49 6.56384 564.972 6.31662C564.904 6.28425 564.942 6.11476 564.887 6.10483C563.895 5.93937 563.869 6.47195 563.302 6.65232C562.736 6.83265 561.86 6.465 561.682 6.35904C561.216 6.08493 562.039 6.2419 562.064 6.215C562.361 5.89488 561.722 5.95 561.234 5.92295C561.164 5.40075 560.481 5.4321 560.729 5.89701C560.757 5.94779 561.136 5.89909 561.234 5.92295C560.806 6.43529 560.056 6.50091 559.228 6.02213C558.84 5.79773 559.207 5.5361 558.029 5.63181C557.495 5.67502 557.701 6.03458 557.229 6.1326C556.152 6.35626 554.752 6.02086 553.641 6.0737C553.237 6.09289 553.63 6.28971 553.355 6.3096C552.623 6.36302 551.978 6.21534 551.244 6.29099C551.177 6.29809 551.34 6.50412 551.112 6.50675C549.38 6.53067 547.872 6.39871 546.065 6.39505C545.191 6.39338 543.63 6.50701 542.725 6.48416C541.157 6.44579 539.227 6.14619 537.888 6.21897C537.014 6.26556 537.206 6.47163 536.831 6.61203C536.109 6.8842 534.83 6.39669 534.658 6.3212C534.652 6.3187 535.404 6.27012 535.003 6.16434C534.77 5.94393 534.666 6.32025 534.658 6.3212C534.545 6.27244 533.043 6.22566 532.744 6.26505C532.582 6.28658 532.673 6.48182 532.588 6.48935C530.58 6.66407 528.568 6.7137 526.531 6.62241C526.495 6.61846 526.549 6.40007 526.465 6.39353C525.286 6.29643 524.531 6.56358 523.558 6.7222C522.585 6.88075 521.814 6.82764 521.239 6.45273C520.505 6.49994 519.452 6.33419 518.846 6.23362C518.241 6.13305 518.156 6.55816 518.103 6.56656C516.44 6.83555 515.479 6.59222 513.755 6.55435C512.935 6.53562 511.308 6.59728 510.42 6.64377C509.719 6.68122 509.296 6.58159 508.65 6.6453C508.562 6.6538 508.65 6.84309 508.624 6.85037C507.902 7.07684 508.249 6.61411 508.1 6.53147C507.56 6.23094 507.226 6.07088 506.302 6.21225C506.089 6.24463 505.468 6.9109 505.08 6.94986C504.575 6.9993 504.765 6.76048 504.236 6.81833C504.191 6.82306 504.2 6.9704 503.874 6.9639C502.359 6.93568 500.707 6.84995 499.132 6.86472C498.917 6.86617 499.193 7.09986 498.882 7.10581C497.424 7.13351 495.826 7.12486 494.405 7.01547C494.055 6.98781 494.275 6.82419 494.199 6.77561C493.733 6.48164 493.072 6.90876 492.963 6.9169C490.362 7.12216 488.371 6.73562 485.72 6.91965C485.576 6.93045 484.465 7.38833 483.969 6.99564C483.935 6.96951 483.445 6.56774 483.012 6.84244C482.985 6.85962 483.29 7.06646 482.757 7.04538C482.224 7.02435 481.366 7.16247 480.633 6.93521C480.401 6.86362 479.852 6.46285 479.16 6.78232C479.115 6.80462 478.047 7.527 477.665 7.0286C477.603 6.94655 477.668 6.41913 476.842 6.68955C476.684 6.74197 476.971 6.85962 476.555 6.93308C475.918 7.0463 475.074 6.90503 474.291 7.13999C474.154 7.18158 473.573 7.53956 473.106 7.26785C473.033 7.2253 473.172 7.04922 472.926 7.02951C471.754 6.93499 470.528 7.05277 469.339 6.93094C468.918 6.88813 469.133 6.60348 468.694 6.52719C468.255 6.45094 467.37 6.37758 466.911 6.50766C466.451 6.6378 466.953 7.09147 466.265 7.12778C463.272 7.28545 460.307 7.01931 457.319 6.98038C456.875 6.97456 457.243 7.1369 456.59 7.13999C454.181 7.15206 450.023 7.30427 447.934 6.95932C446.259 6.68304 448.366 6.47269 447.087 6.36026C446.469 6.30663 445.801 6.83407 445.652 6.85068C444.196 7.01935 443.185 6.78571 441.874 6.85739C441.603 6.87227 441.869 7.08605 441.638 7.09634C440.852 7.13342 440.025 7.038 439.273 7.05545C438.936 7.06377 438.998 7.22705 438.688 7.21445C437.945 7.18618 437.289 7.11754 436.565 6.96451C436.499 6.95056 436.944 6.74746 436.394 6.7399C435.505 6.72825 434.401 6.57729 433.378 6.73319C433.075 6.78009 433.063 7.15325 432.411 6.89554C432.274 6.84172 432.448 6.39363 431.688 6.78079C431.561 6.84513 430.284 7.36735 429.657 7.03073C429.492 6.94214 429.07 6.57547 428.705 6.63309C428.656 6.64228 428.854 6.84272 428.551 6.86228C427.485 6.92769 426.368 6.90631 425.273 6.96909C424.981 6.98625 425.416 7.19366 424.98 7.21262C423.782 7.26504 422.286 7.21223 421.113 7.14731C420.681 7.12298 420.98 6.95116 420.949 6.93247C420.443 6.62834 420.144 7.03884 419.976 7.06278C418.933 7.2061 418.138 7.01327 417.176 7.0643C416.91 7.07786 417.099 7.27359 417.046 7.29105C416.498 7.46157 416.906 7.11007 416.559 7.07132C415.587 6.96161 414.504 6.97734 413.521 7.00235C413.16 7.01183 413.565 7.23878 413.242 7.24466C411.324 7.28377 409.33 7.26205 407.459 7.13693C407.107 7.11296 407.328 6.9382 407.255 6.89829C406.749 6.61902 406.007 6.99994 405.836 7.03623C405.06 7.2019 404.759 7.04736 404.073 7.0762C400.725 7.21982 396.59 7.11747 393.43 7.05423C389.311 6.97285 386.115 6.80659 382.188 6.84976C381.938 6.85229 382.19 7.08477 381.975 7.08994C379.196 7.14598 376.461 7.05514 373.678 7.12228C373.449 7.12738 373.778 7.34778 373.412 7.36337C372.66 7.3969 371.707 7.38492 370.947 7.31455C370.576 7.28064 371.073 7.09152 370.7 7.06125C369.831 6.99035 368.899 6.97465 368.006 7.00998C367.626 7.0255 368.199 7.25091 367.705 7.25351C364.341 7.27587 361.037 7.31469 357.638 7.0228C357.404 7.00275 357.2 6.54462 356.704 6.63248C356.667 6.75962 356.669 6.90918 356.653 7.04508C351.755 7.11828 346.908 6.95946 341.997 6.93491C341.79 6.93392 342.148 7.17666 341.747 7.176C339.426 7.17241 337.173 7.23965 334.8 6.99838C334.564 6.97479 334.685 6.54775 333.991 6.61234C333.869 6.62412 332.824 6.68107 332.554 6.77378C332.517 6.78776 332.708 6.98708 332.371 6.99289C330.414 7.02316 328.363 6.97765 326.409 6.85587C326.093 6.83583 326.429 6.62357 326.205 6.60746C324.611 6.49478 322.879 6.65614 321.356 6.46341C320.337 6.33365 320.715 5.96673 320.173 5.60557C320.096 5.55461 319.465 5.54654 319.433 5.3364C319.349 4.808 319.655 4.2294 319.529 3.66618C319.503 3.54487 318.658 3.67553 319.158 3.38237C319.193 3.36275 319.806 3.26545 319.957 3.166C320.062 3.09724 319.872 2.88353 320.087 2.79552C320.301 2.70758 320.537 2.88672 320.892 2.78331C321.247 2.67862 321.091 2.4355 321.8 2.40672ZM516.119 5.78409C515.558 5.57994 515.475 6.32768 516.082 6.14878C516.111 6.13924 516.148 5.79411 516.119 5.78409ZM583.983 5.66599C583.25 5.33619 582.748 5.82113 583.266 6.07584C583.783 6.33028 584.207 5.76597 583.983 5.66599ZM591.587 5.42521C590.73 5.16517 590.595 6.22549 591.513 6.01114C591.567 5.99903 591.637 5.44031 591.587 5.42521ZM322.684 5.50272C322.676 5.49279 322.223 5.48312 322.212 5.49296C321.97 5.73044 322.877 5.74962 322.684 5.50272ZM599.133 5.16306C598.865 5.01963 598.095 5.18521 598.427 5.36356C598.695 5.50705 599.466 5.34148 599.133 5.16306ZM486.859 4.98606C486.851 4.97492 486.525 4.96489 486.532 5.02787C486.554 5.23073 487.007 5.17348 486.859 4.98606ZM611.958 5.15086C610.063 5.11094 608.914 4.23507 610.977 4.3339C611.351 4.35178 610.172 4.61321 610.648 4.69218C611.518 4.83604 612.096 4.2861 612.984 4.58079C613.144 4.63473 612.066 5.15508 611.954 5.15208C611.955 5.15167 611.956 5.15126 611.958 5.15086ZM515.796 4.88596C515.785 4.87608 515.335 4.8667 515.324 4.8765C515.08 5.11389 515.987 5.13291 515.796 4.88596ZM467.884 4.52372C467.86 4.50265 466.815 4.48295 466.781 4.50236C466.236 4.89055 468.348 4.93154 467.884 4.52372ZM546.113 4.33879C546.604 4.09997 547.192 4.07186 547.583 4.37174C547.095 4.35582 546.604 4.35348 546.113 4.33879ZM306.438 4.45724C306.432 4.37618 306.481 4.30798 306.552 4.25706C306.59 4.23327 306.634 4.21434 306.68 4.20035C306.72 4.18808 306.831 4.26168 306.864 4.25593C306.928 4.24462 306.887 4.18247 306.959 4.17607C306.983 4.17424 307.163 4.28432 307.184 4.28021C307.241 4.26879 307.267 4.24205 307.286 4.21234C307.329 4.13891 307.369 4.05569 307.483 3.92715C307.544 3.8608 307.611 3.78193 307.758 3.64878C307.927 3.54779 308.082 3.20323 309.055 3.13938C309.092 3.15865 309.128 3.17666 309.165 3.19359C308.747 3.14203 307.954 3.57902 307.779 3.95921C307.564 4.31954 307.564 4.49833 307.544 4.62192C307.524 4.85511 307.549 4.91456 307.559 4.97098C307.584 5.06821 307.603 5.07496 307.617 5.08074C307.631 4.94665 307.637 4.81485 307.639 4.68304C307.698 4.82274 307.815 4.97446 307.918 5.04257C307.947 5.06249 307.981 5.07269 308.012 5.07496C307.973 4.9615 307.949 4.81338 307.832 4.80126C307.815 4.79958 307.705 4.9479 307.693 4.95788C307.512 5.11006 307.758 4.83118 307.767 4.77466C307.77 4.75573 307.772 4.73773 307.774 4.72063C307.747 4.50369 307.633 4.38618 307.47 4.30204C307.394 4.26212 307.172 4.56485 307.271 4.36452C307.278 4.35117 307.44 4.24072 307.442 4.21027C307.442 4.20944 307.442 4.20862 307.442 4.20779C307.457 4.15669 307.396 4.13695 307.394 4.11001C307.389 4.05682 307.383 4.05257 307.358 4.01958C307.333 3.98302 307.347 3.90407 307.318 3.86394C307.306 3.84811 307.291 3.83509 307.272 3.82618C307.252 3.81715 307.112 3.96353 307.065 3.95901C307.017 3.95412 306.979 3.87516 307.002 3.82542C307.024 3.77541 307.159 3.69309 307.186 3.66817C307.413 3.46256 307.02 3.63521 307.003 3.62923C306.929 3.60871 306.885 3.57027 306.859 3.52386C306.812 3.43664 306.869 3.2938 306.817 3.20961C306.794 3.17264 306.759 3.14158 306.722 3.11142C306.736 3.17736 306.804 3.30342 306.94 3.37583C307.097 3.46101 307.265 3.44248 307.342 3.41116C307.294 3.39052 307.246 3.37573 307.196 3.38479C307.184 3.38678 307.203 3.62228 307.188 3.62517C307.107 3.6409 307.025 3.64255 306.944 3.61917C306.883 3.59681 306.822 3.55335 306.757 3.47996C306.743 3.46461 306.747 3.25692 306.732 3.22927C306.692 3.15786 306.638 3.04303 306.59 3.01014C306.519 2.96794 306.465 3.06373 306.48 3.5752C306.412 3.54635 306.329 3.51765 306.253 3.34227C306.251 3.33644 306.248 3.33031 306.246 3.32394C306.201 3.20712 306.219 3.00658 306.177 3.1019C306.167 3.12428 306.199 3.31977 306.182 3.33848C306.11 3.41712 306.022 3.35835 305.951 3.46378C305.936 3.4857 305.948 3.66233 305.945 3.69437C305.917 3.95407 305.838 3.52975 305.825 3.49905C305.815 3.47778 305.805 3.45927 305.795 3.44321C305.716 3.2867 305.658 3.36251 305.584 3.35927C305.565 3.35834 305.593 3.59545 305.575 3.6031C305.513 3.62716 305.449 3.62752 305.385 3.5953C305.403 3.57748 305.421 3.54958 305.434 3.51099C305.442 3.48521 305.396 3.2877 305.396 3.26557C305.381 3.17291 305.484 3.54188 305.488 3.45338C305.488 3.4356 305.426 3.27351 305.421 3.25532C305.317 2.97488 305.478 3.36669 305.49 3.37147C305.553 3.43507 305.492 3.27908 305.428 3.19733C305.378 3.16838 305.337 3.15282 305.328 3.18601C305.325 3.19802 305.474 3.36073 305.458 3.38375C305.395 3.47644 305.303 3.53652 305.187 3.5621C305.194 3.51636 305.191 3.44103 305.144 3.38004C305.126 3.3573 304.977 3.28477 304.961 3.27318C304.678 3.12826 305.056 3.32464 305.074 3.32297C305.144 3.33929 305.042 3.29994 305.066 3.31015C305.077 3.33546 305.139 3.36918 305.326 3.42529C305.231 3.52945 305.212 3.64855 305.188 3.76652C305.141 4.0228 304.995 4.30853 304.731 4.41475C304.679 4.42035 304.62 4.41994 304.552 4.41199C304.546 4.41152 304.388 4.27289 304.376 4.27252C304.229 4.26671 304.49 4.46088 304.759 4.76033C304.827 4.83556 304.427 4.5643 304.398 4.54495C304.288 4.47351 304.058 4.26322 304.035 4.25098C303.857 4.15647 304.656 4.80806 304.621 4.85051C304.619 4.85074 304.477 4.72432 304.46 4.71584C304.445 4.70849 304.437 4.70763 304.434 4.7096C304.432 4.70525 304.455 4.71834 304.419 4.68762C304.308 4.58111 303.86 4.35214 304.111 4.50415C304.145 4.51748 304.677 4.76919 304.675 4.69105C304.675 4.66477 304.7 4.54642 304.657 4.52535C304.618 4.50334 304.431 4.5345 304.422 4.53193C304.173 4.54159 304.071 4.56745 303.717 4.67391C303.71 4.67652 303.703 4.67901 303.697 4.68138C303.403 4.7831 304.22 4.57825 304.316 4.56854C304.414 4.55871 304.225 4.65316 304.158 4.68126C304.092 4.70936 303.972 4.7231 303.935 4.74269C303.694 4.87167 304.365 4.67059 304.505 4.66026C304.838 4.63556 304.216 4.82805 304.166 4.89075C304.152 4.9077 304.293 4.86257 304.31 4.87086C304.35 4.8924 304.284 4.93135 304.286 4.95844C304.287 4.97561 304.308 4.9891 304.376 4.99737C304.408 4.99846 304.803 4.98045 304.527 5.06848C304.487 5.08035 304.326 5.09575 304.294 5.1248C304.246 5.16846 304.22 5.23164 304.277 5.26167C304.32 5.28443 304.582 5.22293 304.503 5.26867C304.468 5.28835 304.31 5.27556 304.257 5.30949C304.206 5.34118 304.214 5.4046 304.22 5.43369C304.221 5.43498 304.221 5.43622 304.221 5.43736C304.228 5.46116 304.43 5.43879 304.443 5.44011C304.522 5.44832 304.621 5.49004 304.621 5.49413C304.64 5.60635 304.549 5.71875 304.482 5.82959C304.423 5.82532 304.38 5.82535 304.406 5.78131C304.41 5.77334 304.554 5.61605 304.556 5.61321C304.587 5.52205 304.238 5.97124 304.148 6.14072C304.397 5.78576 304.355 5.8528 304.388 5.81679C304.389 5.81545 304.391 5.81338 304.392 5.81069C304.423 5.78172 304.483 5.64982 304.492 5.63651C304.636 5.42435 304.498 5.7237 304.471 5.78541C304.37 6.01243 304.525 5.76333 304.458 5.91518C304.392 6.06593 304.252 6.26772 304.286 6.28206C304.368 6.14996 304.534 5.77956 304.59 5.73456C304.74 5.61143 304.794 5.77175 304.834 5.89594C304.862 5.95009 304.883 5.99899 304.905 6.02371C304.984 6.11325 305.032 6.11652 305.048 6.20357C305.071 6.36077 305.242 6.10872 305.411 6.08666C305.47 6.08094 305.438 6.13366 305.363 6.20547C305.221 6.33604 304.946 6.55429 304.871 6.62495C304.754 6.73323 304.885 6.63432 304.824 6.69796C304.763 6.76156 304.667 6.8153 304.657 6.85369C304.646 6.89206 304.902 6.75716 305.034 6.6562C305.315 6.44228 305.58 6.18291 305.519 6.31226C305.515 6.31986 305.359 6.43659 305.353 6.45931C305.326 6.55865 305.334 6.63028 305.341 6.7034C305.335 6.74749 305.332 6.79357 305.323 6.86106C305.321 6.88283 305.178 7.04523 305.176 7.06109C305.176 7.23319 305.368 6.9183 305.587 6.57829C305.311 7.04056 305.167 7.34349 305.262 7.38956C305.279 7.39765 305.299 7.37898 305.321 7.34511C305.362 7.27391 305.416 7.14144 305.473 7.04366C305.498 6.99984 305.466 7.16072 305.511 7.05937C305.658 6.72814 305.781 6.34089 305.785 6.51601C305.785 6.52424 305.704 6.70543 305.71 6.72037C305.743 6.81781 305.888 6.46787 305.972 6.45135C306 6.44593 306.017 6.4867 306.032 6.54027C306.036 6.60873 306.041 6.70294 306.061 6.73206C305.874 7.3091 305.98 7.19638 306.106 6.797C306.133 6.8219 306.171 6.80669 306.19 6.8696C306.196 6.8911 306.154 7.06167 306.152 7.08053C306.141 7.16878 306.143 7.19581 306.15 7.1897C306.168 7.1755 306.218 6.97738 306.226 6.96759C306.352 6.83399 306.371 7.15179 306.52 6.87374C306.525 6.86371 306.611 6.45121 306.577 6.75789C306.574 6.77901 306.507 6.96129 306.548 6.98418C306.555 6.9883 306.562 6.99932 306.569 7.01361C306.577 7.07471 306.622 7.20271 306.65 7.04175C306.664 6.99434 306.642 6.65335 306.678 6.91803C306.684 6.95384 306.696 7.07403 306.708 7.14028C306.753 7.35027 306.689 6.92963 306.77 7.28233C306.827 7.51777 306.907 7.70703 306.964 7.72391C306.984 7.73445 306.995 7.70468 306.991 7.61974C306.991 7.61223 306.911 7.28418 306.931 7.28391C306.963 7.28375 307.024 7.33901 307.055 7.3279C307.069 7.32246 307.001 7.12404 307.003 7.11961C307.044 7.03247 307.106 7.05895 307.178 7.10315C307.225 7.13026 307.274 7.16532 307.324 7.18491C307.346 7.19495 307.342 6.90205 307.432 7.11382C307.526 7.34654 307.7 8.36068 307.725 8.10582C307.731 8.05572 307.686 7.71886 307.667 7.46564C307.648 7.20308 307.649 7.03134 307.745 7.36384C307.832 7.21219 307.97 7.38664 308.071 7.32809C308.11 7.31118 308.149 7.27447 308.168 7.21384C308.179 7.19746 308.026 6.86557 308.022 6.87375C308.024 6.88186 308.138 7.0101 308.157 7.00677C308.242 6.99084 308.129 6.87974 308.157 6.84755C308.164 6.83732 308.233 6.84604 308.288 6.84658C308.322 6.84705 308.349 6.84522 308.355 6.83499C308.368 6.80783 308.141 6.7577 308.257 6.73418C308.346 6.71652 308.819 6.75107 308.879 6.71983C308.416 6.65555 308.429 6.63029 308.313 6.56651C308.291 6.55422 308.128 6.54209 308.109 6.53515C308.029 6.50642 308.165 6.50837 308.076 6.47952C308.055 6.47254 307.897 6.4509 307.871 6.44399C307.642 6.38435 308.004 6.3864 308.067 6.38687C308.187 6.38761 308.195 6.37745 308.186 6.36575C308.177 6.35338 308.151 6.33886 308.199 6.33329C308.295 6.32349 308.405 6.37598 308.465 6.35881C308.589 6.32569 308.576 6.26283 308.597 6.21866C308.604 6.20127 308.397 6.15191 308.393 6.14806C308.357 6.08059 308.581 6.1302 308.204 5.93288C308.61 6.09445 308.675 6.12649 308.626 6.09543C308.554 6.04659 308.214 5.86647 308.351 5.88695C308.369 5.88983 308.84 6.109 308.899 6.16064C308.945 6.20004 308.863 6.18474 308.863 6.20966C308.865 6.2137 308.875 6.22169 308.9 6.23566C308.922 6.25431 309.369 6.44524 309.398 6.45098C309.618 6.52175 308.882 6.2755 308.841 6.26497C308.398 6.14085 308.888 6.33053 308.924 6.33958C309.077 6.40903 308.966 6.41361 309.078 6.46304C309.123 6.48238 309.336 6.51766 309.486 6.54206C309.576 6.56003 309.642 6.57528 309.635 6.58362C309.573 6.65753 308.867 6.59051 309.466 6.74923C309.593 6.78317 310.146 6.84155 309.705 6.8414C309.677 6.84137 309.276 6.83114 309.523 6.89019C309.554 6.89762 309.714 6.91927 309.727 6.92525C309.81 6.96492 309.68 6.96618 309.737 7.00483C309.759 7.0198 309.786 7.03629 309.806 7.05248C309.831 7.13796 309.833 7.24221 309.772 7.33687C309.711 7.43505 309.375 7.45874 309.289 7.46485C309.05 7.47947 309.237 7.814 308.971 7.72415C308.733 7.59927 308.51 7.26712 308.322 7.21618C308.596 7.53491 308.862 7.87551 309.111 8.21733C308.822 8.44228 308.5 8.50701 308.279 8.51158C308.222 8.48666 308.165 8.46525 308.115 8.48368C308.103 8.48856 308.155 8.70886 308.143 8.71983C308.093 8.76514 308.015 8.6152 307.968 8.6887C307.946 8.72265 307.934 8.82111 307.921 8.91026C307.919 8.97133 307.918 9.02769 307.912 9.05409C307.806 8.58471 307.791 8.75424 307.754 8.71792C307.74 8.70551 307.711 8.58035 307.694 8.54149C307.627 8.39827 307.743 8.80734 307.753 8.87394C307.795 9.13734 307.583 8.3512 307.518 8.27038C307.512 8.26466 307.507 8.26289 307.503 8.26581C307.499 8.26771 307.6 8.77234 307.604 8.80469C307.625 9.01536 307.548 8.6351 307.514 8.60545C307.452 8.55125 307.389 8.4422 307.381 8.60082C307.379 8.64773 307.434 8.96469 307.337 8.73548C307.324 8.70547 307.279 8.54214 307.273 8.53347C307.197 8.42402 307.265 8.69705 307.31 8.91319C307.314 8.98272 307.314 9.04741 307.302 9.09468C307.243 9.29818 307.007 8.96704 306.97 8.8641C306.859 8.60303 307.007 8.74036 307.007 8.71229C306.992 8.38966 306.916 8.4603 306.848 8.44025C306.778 7.92306 306.72 7.95898 306.779 8.42071C306.786 8.47122 306.833 8.41818 306.848 8.44025C306.855 8.95627 306.681 9.03367 306.577 8.54966C306.534 8.32238 306.595 8.06704 306.459 8.14907C306.395 8.18409 306.366 8.54349 306.283 8.6288C306.273 8.63965 306.262 8.64865 306.251 8.65598C306.164 8.79643 306.148 8.4919 306.08 8.52962C306.054 8.54413 306.039 8.74157 306.019 8.75814C305.969 8.80273 305.961 8.65083 305.906 8.71722C305.901 8.72348 305.871 8.92749 305.858 8.92762C305.843 8.92836 305.828 8.92567 305.815 8.92048C305.678 8.8793 305.575 8.75523 305.433 8.70723C305.378 8.68858 305.274 8.70908 305.188 8.70323C305.164 8.70676 305.143 8.70547 305.131 8.69294C305.062 8.62503 305.07 8.30637 304.973 8.34669C304.942 8.35916 304.911 8.41243 304.879 8.47802C304.834 8.54184 304.794 8.62178 304.734 8.6744C304.491 8.87097 304.493 8.31131 304.523 8.23754C304.525 8.23632 304.657 8.25849 304.654 8.13388C304.738 7.92723 304.526 8.2382 304.523 8.23754C304.529 8.18779 304.357 8.00381 304.297 7.99802C304.263 7.99627 304.144 8.15221 304.128 8.14759C304.011 8.11256 303.902 8.05926 303.808 7.9933C303.704 7.977 303.648 7.91928 303.646 7.8163C303.647 7.81221 303.816 7.67389 303.818 7.66604C303.841 7.58273 303.722 7.63586 303.595 7.69379C303.567 7.73571 303.54 7.77995 303.52 7.82066C303.447 7.97501 303.535 7.98042 303.784 7.69977C303.776 7.75379 303.895 7.63374 303.949 7.54863C304.003 7.46374 303.789 7.83103 303.786 7.83928C303.768 7.88056 303.758 7.90974 303.752 7.92916C303.645 7.98397 303.682 7.80594 303.625 7.73997C303.593 7.7017 303.483 7.71305 303.417 7.73057C303.397 7.73617 303.388 7.72475 303.381 7.7109C303.313 7.65786 303.257 7.59922 303.142 7.56616C303.116 7.55838 303.028 7.7277 303.017 7.72905C302.688 7.76654 303.066 7.46915 303.083 7.3783C303.152 7.03863 303.224 6.90216 302.958 6.76831C302.905 6.75335 302.208 6.87877 302.107 6.72101C301.989 6.5419 302.24 6.54087 302.135 6.37025C302.127 6.35576 301.982 6.39162 301.966 6.27071C301.951 6.15659 301.948 6.04675 301.953 5.94458C301.986 5.87323 302.034 5.79775 302.019 5.7279C302.017 5.71584 301.784 5.74201 301.777 5.72477C301.755 5.66765 301.751 5.60577 301.787 5.5444C301.804 5.54411 301.827 5.5432 301.859 5.54063C301.887 5.53832 302.05 5.52458 302.098 5.5203C302.391 5.48941 301.965 5.52595 301.957 5.52923C301.83 5.54279 301.932 5.53158 301.979 5.51268C301.997 5.45731 301.996 5.40505 301.916 5.36652C301.904 5.36113 301.444 5.40718 301.819 5.28826C301.844 5.28029 302.228 5.15954 301.955 5.19994C301.938 5.20248 301.741 5.26755 301.755 5.23339C301.764 5.20905 301.693 5.19454 301.728 5.15446C301.729 5.0855 301.75 5.00973 301.804 4.93417C301.863 4.83778 302.238 4.67157 301.928 4.44447C301.918 4.43708 301.734 4.33333 301.632 4.18946C301.528 4.04904 301.511 3.87385 301.772 3.87051C301.86 3.86803 302.347 4.03914 302.186 3.7076C302.158 3.63951 302.01 3.68356 302.001 3.52209C301.995 3.28733 302.218 3.13929 302.225 2.88302C302.215 2.87052 302.204 2.85647 302.191 2.84068C302.164 2.80824 301.909 2.55485 302.135 2.70771C302.171 2.73166 302.301 2.84989 302.325 2.85174C302.44 2.86106 302.394 2.7327 302.53 2.75864C302.578 2.76761 302.79 2.95836 302.865 2.98788C302.929 3.01354 303.005 3.02315 302.968 2.95756C302.958 2.95345 302.945 2.94742 302.93 2.93912C302.812 2.87909 302.478 2.56922 302.411 2.59751C302.192 2.69796 302.183 2.99625 302.237 3.16985C302.278 3.1303 302.315 3.08994 302.335 3.04598C302.346 3.02263 302.183 3.01078 302.187 2.97405C302.194 2.90872 302.174 2.81447 302.192 2.72908C302.266 2.31263 302.556 1.83712 302.891 1.70655C303.388 1.53571 303.207 2.07942 303.486 1.92703C303.604 1.87419 303.367 1.38386 303.392 1.34239C303.409 1.30675 303.429 1.27537 303.45 1.24768C303.454 1.13686 303.606 1.25151 303.621 1.15993C303.624 1.13887 303.484 0.976863 303.488 0.960828C303.501 0.904541 303.596 0.952873 303.619 0.913463C303.629 0.89539 303.529 0.766895 303.55 0.766469C303.568 0.765569 303.589 0.769147 303.613 0.778568C303.724 0.746412 303.849 0.738893 303.994 0.767821C304.013 0.772994 304.032 0.996785 304.14 0.942909C304.321 0.853198 304.591 0.902236 304.769 0.69908C304.82 0.63902 304.754 0.268553 304.953 0.496257C304.995 0.545101 305.013 0.991621 305.127 0.589719C305.138 0.555531 305.205 0.394068 305.302 0.295489C305.322 0.204015 305.347 0.164165 305.369 0.327244C305.38 0.415574 305.413 0.781529 305.432 0.723403C305.435 0.714141 305.419 0.514047 305.435 0.494071C305.494 0.427157 305.557 0.446945 305.617 0.382625C305.633 0.365053 305.604 0.158324 305.628 0.138756C305.653 0.117749 305.682 0.112531 305.711 0.117708C305.742 0.126284 305.772 0.160358 305.8 0.19886C305.816 0.222444 305.814 0.394555 305.816 0.413183C305.85 0.71601 305.84 0.305413 305.844 0.281218C305.871 0.136087 305.91 0.326565 305.937 0.273014C305.944 0.258769 305.921 0.064321 305.921 0.046792C305.921 -0.124452 305.941 0.226687 305.956 0.264278C305.956 0.265602 305.957 0.266906 305.957 0.26819C306.021 0.367893 306.079 0.346636 306.132 0.31689C306.151 0.305539 306.107 0.0817499 306.125 0.0741744C306.184 0.0462034 306.246 0.0377364 306.311 0.0567939C306.383 0.0689292 306.455 0.0980804 306.525 0.147537C306.555 0.169606 306.548 0.345183 306.556 0.384639C306.613 0.660836 306.648 0.277613 306.661 0.240707C306.715 0.0723372 306.746 0.225879 306.798 0.195401C306.823 0.180606 306.849 0.168269 306.875 0.158141C307.003 0.0914223 307.146 0.11753 307.277 0.157467C307.575 0.166066 307.935 0.23581 308.258 0.382129C308.888 0.660701 309.246 1.15743 309.397 1.48197C309.409 1.62988 309.424 1.76681 309.521 1.87353C309.531 1.88424 309.722 1.75115 309.733 1.75883C309.736 1.76154 309.739 1.76431 309.742 1.76712C309.799 1.78478 309.773 1.83493 309.774 1.80394C309.793 1.8201 309.813 1.83455 309.837 1.84659C309.849 1.85318 310.006 1.69731 310.032 1.70314C310.085 1.71409 310.11 1.76296 310.083 1.84105C310.071 1.87887 309.908 1.97891 309.898 2.01449C309.883 2.07034 309.888 2.1114 309.911 2.13714C309.907 2.13204 309.908 2.12405 309.914 2.11281C309.921 2.09753 310.096 1.95515 310.09 1.94531C310.072 1.9074 310.074 1.88832 310.059 1.92008C310.108 1.99656 310.134 2.10102 310.118 2.25955C310.115 2.28339 309.835 2.6456 309.912 2.59522C309.994 2.49805 310.088 2.38211 310.175 2.27741C310.204 2.29073 310.232 2.30632 310.258 2.32377C310.661 2.62068 311.055 3.23115 311.151 3.81693C311.149 3.9379 311.143 4.05992 311.161 4.17676C311.163 4.18833 311.394 4.1106 311.399 4.13272C311.4 4.13752 311.401 4.14228 311.402 4.14703C311.424 4.23931 311.454 4.33253 311.48 4.55126C311.49 4.67096 311.516 4.79617 311.472 5.15656C311.435 5.34622 311.424 5.61142 311.113 6.1178C310.856 6.65187 309.752 7.24943 309.165 7.17051C309.129 7.15872 309.092 7.13593 309.055 7.0938C309.725 7.06854 310.062 6.82096 310.244 6.68775C310.428 6.54126 310.5 6.43711 310.551 6.35522C310.598 6.26729 310.272 5.99471 310.391 5.94133C310.419 5.92251 310.508 5.88508 310.59 5.92682C310.603 5.93203 310.774 6.03529 310.786 6.02462C310.791 6.02072 310.795 6.01753 310.797 6.01491C310.767 6.11537 310.676 6.18931 310.528 6.22881C310.502 6.23548 310.322 6.12169 310.302 6.1256C310.276 6.13083 310.258 6.14051 310.245 6.15277C310.189 6.20076 310.229 6.29743 310.06 6.28296C309.922 6.27116 309.601 6.09221 309.264 5.95911C309.216 5.9404 309.194 5.96709 309.004 5.87713C308.527 5.65115 308.014 5.3826 307.504 5.1434C307.394 5.09186 307.489 5.19638 307.238 5.04065C307.222 5.03016 307.151 4.95278 307.066 4.90046C307.007 4.86424 306.809 4.78165 306.737 4.73046C306.664 4.67916 306.831 4.74418 306.749 4.67781C306.665 4.61075 306.443 4.51227 306.438 4.45724ZM304.104 7.12259C304.172 6.9275 303.817 7.58543 303.931 7.44356C303.937 7.43593 304.101 7.1322 304.104 7.12259ZM308.116 7.89203C308.018 7.57437 308.074 8.05689 308.147 8.3027C308.22 8.54825 308.146 7.98832 308.116 7.89203ZM308.807 6.93953C308.537 6.97161 309.556 7.27552 309.383 7.04387C309.373 7.03052 308.823 6.93568 308.807 6.93953ZM309.231 5.79274C309.222 5.78867 309.203 5.80626 309.211 5.81118C309.418 5.92872 309.457 5.89424 309.231 5.79274ZM308.606 6.47117C308.462 6.46685 308.62 6.53216 308.799 6.53755C308.944 6.54188 308.785 6.47653 308.606 6.47117ZM303.811 4.97731C303.822 4.97422 303.827 4.95404 303.766 4.96911C303.569 5.01771 303.631 5.02916 303.811 4.97731ZM308.801 5.87067C308.719 5.94961 307.902 5.62762 308.041 5.5657C308.067 5.55448 308.273 5.72791 308.356 5.73804C308.507 5.7563 308.026 5.48812 308.313 5.57097C308.366 5.58623 308.808 5.86701 308.802 5.87137C308.802 5.87114 308.802 5.87091 308.801 5.87067ZM304.51 6.32114C304.514 6.31211 304.496 6.29191 304.491 6.30028C304.368 6.50339 304.404 6.54421 304.51 6.32114ZM304.438 4.22934C304.449 4.23728 304.475 4.2265 304.488 4.21411C304.498 4.20383 304.504 4.19356 304.499 4.18851C304.382 4.07395 304.29 4.02643 304.253 4.01965C304.201 4.00952 304.246 4.09006 304.438 4.22934ZM306.056 6.74771C306.148 6.52615 306.169 6.50286 306.106 6.79668C306.091 6.7759 306.071 6.76785 306.056 6.74771Z" fill="#BD0000"/>
</svg>
