<svg width="199" height="42" viewBox="0 0 199 42" fill="none" xmlns="http://www.w3.org/2000/svg">
<path d="M7.63505 30.7782C8.02791 30.7782 8.22433 30.9917 8.22433 31.4187V39.2202C8.22433 39.4593 8.17736 39.6258 8.08342 39.7198C7.99801 39.8137 7.8571 39.8607 7.66067 39.8607C7.11409 39.8607 6.8408 39.5319 6.8408 38.8743V35.518H2.66458V39.028C2.66458 39.3355 2.59626 39.5532 2.45961 39.6813C2.33151 39.8009 2.13508 39.8607 1.87033 39.8607C1.47748 39.8607 1.28105 39.6472 1.28105 39.2202V31.4187C1.28105 31.1796 1.32375 31.013 1.40915 30.9191C1.5031 30.8251 1.64828 30.7782 1.84471 30.7782C2.39129 30.7782 2.66458 31.107 2.66458 31.7646V34.8134H6.8408V31.6108C6.8408 31.3034 6.90485 31.0899 7.03296 30.9703C7.1696 30.8422 7.3703 30.7782 7.63505 30.7782Z" fill="#291818"/>
<path d="M11.1731 39.1817C11.0621 39.4806 10.934 39.6685 10.7888 39.7454C10.6436 39.8222 10.5113 39.8607 10.3917 39.8607C10.2721 39.8607 10.1825 39.8265 10.1227 39.7582C10.0714 39.6899 10.0458 39.6087 10.0458 39.5148C10.0458 39.4123 10.0672 39.3056 10.1099 39.1945L13.1203 31.0856C13.163 30.9831 13.2484 30.9063 13.3766 30.855C13.5132 30.8038 13.6627 30.7782 13.8249 30.7782C13.9957 30.7782 14.158 30.8081 14.3117 30.8678C14.474 30.9191 14.5722 31.0045 14.6064 31.124L17.54 39.2458C17.5485 39.2799 17.5528 39.3141 17.5528 39.3483C17.5613 39.3739 17.5656 39.4038 17.5656 39.4379C17.5656 39.549 17.5271 39.6472 17.4503 39.7326C17.382 39.818 17.2539 39.8607 17.066 39.8607C16.9891 39.8607 16.8866 39.8479 16.7585 39.8223C16.639 39.7881 16.5194 39.724 16.3998 39.6301C16.2803 39.5276 16.182 39.3782 16.1052 39.1817L15.4262 37.4267H11.8265L11.1731 39.1817ZM13.684 32.2898H13.6071L12.0314 36.7606H15.2341L13.684 32.2898Z" fill="#291818"/>
<path d="M20.8169 36.3378V39.028C20.8169 39.3355 20.7486 39.5532 20.612 39.6813C20.4839 39.8009 20.2874 39.8607 20.0227 39.8607C19.6298 39.8607 19.4334 39.6472 19.4334 39.2202V31.4187C19.4334 31.1796 19.4761 31.013 19.5615 30.9191C19.6555 30.8251 19.8006 30.7782 19.9971 30.7782H22.1364C22.3328 30.7782 22.5762 30.791 22.8666 30.8166C23.1655 30.8337 23.473 30.8849 23.789 30.9703C24.105 31.0557 24.3996 31.1924 24.6729 31.3803C24.9547 31.5681 25.181 31.8286 25.3519 32.1617C25.5227 32.4862 25.6081 32.909 25.6081 33.4299C25.6081 33.9594 25.4842 34.4462 25.2366 34.8903C24.9889 35.3344 24.6088 35.6888 24.0964 35.9535C23.584 36.2097 22.9349 36.3378 22.1492 36.3378H20.8169ZM20.8169 31.4571V35.6589H22.1364C22.7513 35.6589 23.2424 35.4838 23.6096 35.1337C23.9769 34.7835 24.1605 34.2156 24.1605 33.4299C24.1605 32.8321 24.011 32.3538 23.7121 31.9951C23.4217 31.6365 22.8965 31.4571 22.1364 31.4571H20.8169Z" fill="#291818"/>
<path d="M34.5522 35.3258C34.5522 35.6077 34.5266 35.945 34.4753 36.3378C34.4241 36.7222 34.3216 37.1193 34.1679 37.5292C34.0227 37.9391 33.8049 38.3192 33.5145 38.6693C33.2327 39.0195 32.8569 39.3056 32.3872 39.5276C31.9175 39.7497 31.3325 39.8607 30.6322 39.8607C29.9319 39.8607 29.3469 39.7497 28.8771 39.5276C28.4074 39.3056 28.0316 39.0195 27.7498 38.6693C27.468 38.3192 27.2502 37.9391 27.0965 37.5292C26.9513 37.1193 26.8531 36.7222 26.8018 36.3378C26.7591 35.945 26.7378 35.6077 26.7378 35.3258C26.7378 35.0525 26.7591 34.7237 26.8018 34.3394C26.8531 33.9466 26.9513 33.5452 27.0965 33.1353C27.2502 32.7253 27.468 32.341 27.7498 31.9823C28.0316 31.6236 28.4074 31.3333 28.8771 31.1112C29.3469 30.8892 29.9319 30.7782 30.6322 30.7782C31.3325 30.7782 31.9175 30.8892 32.3872 31.1112C32.8569 31.3333 33.2327 31.6236 33.5145 31.9823C33.8049 32.341 34.0227 32.7253 34.1679 33.1353C34.3216 33.5452 34.4241 33.9466 34.4753 34.3394C34.5266 34.7237 34.5522 35.0525 34.5522 35.3258ZM33.1046 35.3258C33.1046 35.0696 33.0875 34.7707 33.0534 34.4291C33.0277 34.0875 32.968 33.7459 32.874 33.4043C32.7886 33.0541 32.6562 32.7296 32.4769 32.4307C32.2975 32.1318 32.0584 31.8927 31.7595 31.7133C31.4606 31.5254 31.0848 31.4315 30.6322 31.4315C30.1881 31.4315 29.8166 31.5254 29.5177 31.7133C29.2273 31.8927 28.9924 32.1318 28.8131 32.4307C28.6337 32.7296 28.4971 33.0541 28.4032 33.4043C28.3177 33.7459 28.258 34.0875 28.2238 34.4291C28.1982 34.7707 28.1854 35.0696 28.1854 35.3258C28.1854 35.582 28.1982 35.8809 28.2238 36.2225C28.258 36.5556 28.3177 36.8972 28.4032 37.2474C28.4971 37.5975 28.6337 37.9221 28.8131 38.221C28.9924 38.5113 29.2273 38.7505 29.5177 38.9383C29.8166 39.1177 30.1881 39.2074 30.6322 39.2074C31.0848 39.2074 31.4606 39.1177 31.7595 38.9383C32.0584 38.7505 32.2975 38.5113 32.4769 38.221C32.6562 37.9221 32.7886 37.5975 32.874 37.2474C32.968 36.8972 33.0277 36.5556 33.0534 36.2225C33.0875 35.8809 33.1046 35.582 33.1046 35.3258Z" fill="#291818"/>
<path d="M36.2725 39.8607V41.1673C36.2725 41.4748 36.2084 41.6883 36.0803 41.8078C35.9608 41.936 35.7772 42 35.5295 42C35.1623 42 34.9786 41.7865 34.9786 41.3595V39.6557C34.9786 39.4678 35.0384 39.344 35.158 39.2842C35.2861 39.2244 35.4697 39.1903 35.7088 39.1817H35.8369C36.1956 38.823 36.4689 38.3576 36.6568 37.7854C36.8447 37.2132 36.9728 36.5129 37.0411 35.6845C37.1094 34.8561 37.1436 33.8911 37.1436 32.7894V31.4187C37.1436 31.1796 37.1863 31.013 37.2717 30.9191C37.3657 30.8251 37.5108 30.7782 37.7073 30.7782H41.9604C42.3532 30.7782 42.5496 30.9917 42.5496 31.4187V39.1817H42.9339C43.1816 39.1817 43.3695 39.2116 43.4976 39.2714C43.6343 39.3312 43.7026 39.4593 43.7026 39.6557V41.3595C43.7026 41.7865 43.519 42 43.1517 42C42.9126 42 42.729 41.936 42.6009 41.8078C42.4728 41.6883 42.4087 41.4748 42.4087 41.1673V39.8607H36.2725ZM38.1556 32.751C38.1556 34.1088 38.0873 35.3301 37.9507 36.4147C37.814 37.4908 37.5066 38.4131 37.0283 39.1817H41.1661V31.4571H38.1556V32.751Z" fill="#291818"/>
<path d="M51.6711 30.7782C52.064 30.7782 52.2604 30.9917 52.2604 31.4187V39.2202C52.2604 39.4593 52.2134 39.6258 52.1195 39.7198C52.0341 39.8137 51.8931 39.8607 51.6967 39.8607C51.1501 39.8607 50.8768 39.5319 50.8768 38.8743V35.518H46.7006V39.028C46.7006 39.3355 46.6323 39.5532 46.4957 39.6813C46.3676 39.8009 46.1711 39.8607 45.9064 39.8607C45.5135 39.8607 45.3171 39.6472 45.3171 39.2202V31.4187C45.3171 31.1796 45.3598 31.013 45.4452 30.9191C45.5391 30.8251 45.6843 30.7782 45.8808 30.7782C46.4273 30.7782 46.7006 31.107 46.7006 31.7646V34.8134H50.8768V31.6108C50.8768 31.3034 50.9409 31.0899 51.069 30.9703C51.2057 30.8422 51.4063 30.7782 51.6711 30.7782Z" fill="#291818"/>
<path d="M61.1533 30.7782C61.5461 30.7782 61.7425 30.9917 61.7425 31.4187V39.2202C61.7425 39.4593 61.6956 39.6258 61.6016 39.7198C61.5162 39.8137 61.3753 39.8607 61.1789 39.8607C60.6323 39.8607 60.359 39.5319 60.359 38.8743V32.5588L56.2084 39.4123C56.1486 39.5148 56.0675 39.6173 55.965 39.7198C55.8625 39.8137 55.6789 39.8607 55.4142 39.8607C55.0213 39.8607 54.8249 39.6472 54.8249 39.2202V31.4187C54.8249 31.1796 54.8676 31.013 54.953 30.9191C55.0469 30.8251 55.1921 30.7782 55.3885 30.7782C55.9351 30.7782 56.2084 31.107 56.2084 31.7646V38.08L60.359 31.2265C60.4273 31.107 60.5085 31.0045 60.6024 30.9191C60.7049 30.8251 60.8885 30.7782 61.1533 30.7782Z" fill="#291818"/>
<path d="M68.7913 28.6517C68.834 28.404 68.928 28.2417 69.0731 28.1649C69.2269 28.088 69.3977 28.0496 69.5856 28.0496C69.7308 28.0496 69.8717 28.0837 70.0083 28.1521C70.1535 28.2118 70.2261 28.3229 70.2261 28.4851C70.2261 29.0061 70.004 29.4032 69.5599 29.6765C69.1158 29.9412 68.518 30.0736 67.7665 30.0736C67.0149 30.0736 66.4256 29.9412 65.9986 29.6765C65.5716 29.4117 65.341 29.0274 65.3069 28.5236C65.3069 28.3527 65.3709 28.2332 65.499 28.1649C65.6357 28.088 65.7851 28.0496 65.9474 28.0496C66.1353 28.0496 66.3018 28.088 66.447 28.1649C66.6007 28.2417 66.6989 28.404 66.7416 28.6517C66.7843 28.8908 66.8783 29.1 67.0235 29.2794C67.1772 29.4587 67.4249 29.5484 67.7665 29.5484C68.1166 29.5484 68.3643 29.4587 68.5095 29.2794C68.6547 29.1 68.7486 28.8908 68.7913 28.6517ZM70.636 30.7782C71.0289 30.7782 71.2253 30.9917 71.2253 31.4187V39.2202C71.2253 39.4593 71.1783 39.6258 71.0844 39.7198C70.999 39.8137 70.8581 39.8607 70.6616 39.8607C70.1151 39.8607 69.8418 39.5319 69.8418 38.8743V32.5588L65.6912 39.4123C65.6314 39.5148 65.5503 39.6173 65.4478 39.7198C65.3453 39.8137 65.1617 39.8607 64.8969 39.8607C64.5041 39.8607 64.3076 39.6472 64.3076 39.2202V31.4187C64.3076 31.1796 64.3503 31.013 64.4358 30.9191C64.5297 30.8251 64.6749 30.7782 64.8713 30.7782C65.4179 30.7782 65.6912 31.107 65.6912 31.7646V38.08L69.8418 31.2265C69.9101 31.107 69.9912 31.0045 70.0852 30.9191C70.1877 30.8251 70.3713 30.7782 70.636 30.7782Z" fill="#291818"/>
<path d="M78.0154 39.1817C77.9043 39.4806 77.7762 39.6685 77.6311 39.7454C77.4859 39.8222 77.3535 39.8607 77.2339 39.8607C77.1144 39.8607 77.0247 39.8265 76.9649 39.7582C76.9137 39.6899 76.888 39.6087 76.888 39.5148C76.888 39.4123 76.9094 39.3056 76.9521 39.1945L79.9626 31.0856C80.0053 30.9831 80.0907 30.9063 80.2188 30.855C80.3554 30.8038 80.5049 30.7782 80.6671 30.7782C80.8379 30.7782 81.0002 30.8081 81.1539 30.8678C81.3162 30.9191 81.4144 31.0045 81.4486 31.124L84.3822 39.2458C84.3907 39.2799 84.395 39.3141 84.395 39.3483C84.4035 39.3739 84.4078 39.4038 84.4078 39.4379C84.4078 39.549 84.3694 39.6472 84.2925 39.7326C84.2242 39.818 84.0961 39.8607 83.9082 39.8607C83.8313 39.8607 83.7288 39.8479 83.6007 39.8223C83.4812 39.7881 83.3616 39.724 83.242 39.6301C83.1225 39.5276 83.0243 39.3782 82.9474 39.1817L82.2684 37.4267H78.6687L78.0154 39.1817ZM80.5262 32.2898H80.4494L78.8737 36.7606H82.0763L80.5262 32.2898Z" fill="#291818"/>
<path d="M94.4231 39.8607C93.9107 39.8607 93.6545 39.5319 93.6545 38.8743V32.6741H93.5648L90.9258 39.3867C90.7977 39.7027 90.6184 39.8607 90.3878 39.8607C90.1487 39.8607 89.965 39.7027 89.8369 39.3867L87.3773 32.6741H87.2877V39.1433C87.2877 39.4166 87.2279 39.6045 87.1083 39.707C86.9973 39.8094 86.882 39.8607 86.7624 39.8607C86.6429 39.8607 86.5318 39.818 86.4294 39.7326C86.3269 39.6472 86.2756 39.4977 86.2756 39.2842V31.4571C86.2756 31.2351 86.361 31.0685 86.5318 30.9575C86.7026 30.8379 86.8905 30.7782 87.0955 30.7782C87.2578 30.7782 87.4371 30.8251 87.6335 30.9191C87.83 31.0045 87.9709 31.1625 88.0563 31.3931L90.5159 38.1953H90.5799L93.2573 31.4571C93.3513 31.2009 93.4965 31.0258 93.6929 30.9319C93.8979 30.8294 94.0986 30.7782 94.295 30.7782C94.7305 30.7782 94.9483 31.0045 94.9483 31.4571V39.2202C94.9483 39.4593 94.9099 39.6258 94.833 39.7198C94.7562 39.8137 94.6195 39.8607 94.4231 39.8607Z" fill="#291818"/>
<path d="M97.8941 39.1817C97.7831 39.4806 97.655 39.6685 97.5098 39.7454C97.3646 39.8222 97.2323 39.8607 97.1127 39.8607C96.9931 39.8607 96.9035 39.8265 96.8437 39.7582C96.7924 39.6899 96.7668 39.6087 96.7668 39.5148C96.7668 39.4123 96.7882 39.3056 96.8309 39.1945L99.8413 31.0856C99.884 30.9831 99.9694 30.9063 100.098 30.855C100.234 30.8038 100.384 30.7782 100.546 30.7782C100.717 30.7782 100.879 30.8081 101.033 30.8678C101.195 30.9191 101.293 31.0045 101.327 31.124L104.261 39.2458C104.269 39.2799 104.274 39.3141 104.274 39.3483C104.282 39.3739 104.287 39.4038 104.287 39.4379C104.287 39.549 104.248 39.6472 104.171 39.7326C104.103 39.818 103.975 39.8607 103.787 39.8607C103.71 39.8607 103.608 39.8479 103.48 39.8223C103.36 39.7881 103.24 39.724 103.121 39.6301C103.001 39.5276 102.903 39.3782 102.826 39.1817L102.147 37.4267H98.5475L97.8941 39.1817ZM100.405 32.2898H100.328L98.7524 36.7606H101.955L100.405 32.2898Z" fill="#291818"/>
<path d="M108.828 31.4571V39.0921C108.828 39.3995 108.759 39.6045 108.623 39.707C108.495 39.8094 108.298 39.8607 108.034 39.8607C107.641 39.8607 107.444 39.6472 107.444 39.2202V31.4571H105.523V32.3666C105.523 32.6741 105.459 32.8919 105.331 33.02C105.211 33.1395 105.027 33.1993 104.78 33.1993C104.412 33.1993 104.229 32.9858 104.229 32.5588V31.2521C104.229 31.0557 104.293 30.9276 104.421 30.8678C104.558 30.8081 104.75 30.7782 104.997 30.7782H111.275C111.522 30.7782 111.71 30.8081 111.838 30.8678C111.975 30.9276 112.043 31.0557 112.043 31.2521V32.5588C112.043 32.9858 111.86 33.1993 111.492 33.1993C111.253 33.1993 111.07 33.1395 110.942 33.02C110.813 32.8919 110.749 32.6741 110.749 32.3666V31.4571H108.828Z" fill="#291818"/>
<path d="M120.548 35.3258C120.548 35.6077 120.522 35.945 120.471 36.3378C120.419 36.7222 120.317 37.1193 120.163 37.5292C120.018 37.9391 119.8 38.3192 119.51 38.6693C119.228 39.0195 118.852 39.3056 118.383 39.5276C117.913 39.7497 117.328 39.8607 116.628 39.8607C115.927 39.8607 115.342 39.7497 114.873 39.5276C114.403 39.3056 114.027 39.0195 113.745 38.6693C113.463 38.3192 113.246 37.9391 113.092 37.5292C112.947 37.1193 112.848 36.7222 112.797 36.3378C112.755 35.945 112.733 35.6077 112.733 35.3258C112.733 35.0525 112.755 34.7237 112.797 34.3394C112.848 33.9466 112.947 33.5452 113.092 33.1353C113.246 32.7253 113.463 32.341 113.745 31.9823C114.027 31.6236 114.403 31.3333 114.873 31.1112C115.342 30.8892 115.927 30.7782 116.628 30.7782C117.328 30.7782 117.913 30.8892 118.383 31.1112C118.852 31.3333 119.228 31.6236 119.51 31.9823C119.8 32.341 120.018 32.7253 120.163 33.1353C120.317 33.5452 120.419 33.9466 120.471 34.3394C120.522 34.7237 120.548 35.0525 120.548 35.3258ZM119.1 35.3258C119.1 35.0696 119.083 34.7707 119.049 34.4291C119.023 34.0875 118.963 33.7459 118.869 33.4043C118.784 33.0541 118.652 32.7296 118.472 32.4307C118.293 32.1318 118.054 31.8927 117.755 31.7133C117.456 31.5254 117.08 31.4315 116.628 31.4315C116.183 31.4315 115.812 31.5254 115.513 31.7133C115.223 31.8927 114.988 32.1318 114.808 32.4307C114.629 32.7296 114.492 33.0541 114.399 33.4043C114.313 33.7459 114.253 34.0875 114.219 34.4291C114.194 34.7707 114.181 35.0696 114.181 35.3258C114.181 35.582 114.194 35.8809 114.219 36.2225C114.253 36.5556 114.313 36.8972 114.399 37.2474C114.492 37.5975 114.629 37.9221 114.808 38.221C114.988 38.5113 115.223 38.7505 115.513 38.9383C115.812 39.1177 116.183 39.2074 116.628 39.2074C117.08 39.2074 117.456 39.1177 117.755 38.9383C118.054 38.7505 118.293 38.5113 118.472 38.221C118.652 37.9221 118.784 37.5975 118.869 37.2474C118.963 36.8972 119.023 36.5556 119.049 36.2225C119.083 35.8809 119.1 35.582 119.1 35.3258Z" fill="#291818"/>
<path d="M123.889 36.3378V39.028C123.889 39.3355 123.82 39.5532 123.684 39.6813C123.556 39.8009 123.359 39.8607 123.095 39.8607C122.702 39.8607 122.505 39.6472 122.505 39.2202V31.4187C122.505 31.1796 122.548 31.013 122.633 30.9191C122.727 30.8251 122.873 30.7782 123.069 30.7782H125.208C125.405 30.7782 125.648 30.791 125.938 30.8166C126.237 30.8337 126.545 30.8849 126.861 30.9703C127.177 31.0557 127.471 31.1924 127.745 31.3803C128.027 31.5681 128.253 31.8286 128.424 32.1617C128.595 32.4862 128.68 32.909 128.68 33.4299C128.68 33.9594 128.556 34.4462 128.308 34.8903C128.061 35.3344 127.681 35.6888 127.168 35.9535C126.656 36.2097 126.007 36.3378 125.221 36.3378H123.889ZM123.889 31.4571V35.6589H125.208C125.823 35.6589 126.314 35.4838 126.681 35.1337C127.049 34.7835 127.232 34.2156 127.232 33.4299C127.232 32.8321 127.083 32.3538 126.784 31.9951C126.494 31.6365 125.968 31.4571 125.208 31.4571H123.889Z" fill="#291818"/>
<path d="M135.574 33.084C135.335 33.084 135.152 33.0242 135.024 32.9047C134.895 32.7766 134.831 32.5588 134.831 32.2514V31.534C134.686 31.4998 134.537 31.4742 134.383 31.4571C134.229 31.44 134.067 31.4315 133.896 31.4315C133.11 31.4315 132.474 31.7646 131.987 32.4307C131.501 33.0883 131.257 34.0875 131.257 35.4283C131.257 36.4104 131.368 37.1748 131.59 37.7214C131.812 38.2679 132.128 38.6522 132.538 38.8743C132.948 39.0878 133.431 39.1945 133.986 39.1945C134.251 39.1945 134.528 39.1604 134.819 39.0921C135.109 39.0237 135.391 38.9341 135.664 38.823L135.907 38.7206C135.925 38.712 135.942 38.7077 135.959 38.7077C135.976 38.6992 135.993 38.6949 136.01 38.6949C136.104 38.6949 136.176 38.7376 136.228 38.823C136.288 38.8999 136.317 38.9853 136.317 39.0793C136.317 39.1988 136.262 39.2842 136.151 39.3355L135.933 39.4251C135.617 39.5532 135.28 39.66 134.921 39.7454C134.571 39.8222 134.14 39.8607 133.627 39.8607C132.739 39.8607 132.013 39.6813 131.449 39.3226C130.886 38.964 130.472 38.4515 130.207 37.7854C129.942 37.1193 129.81 36.325 129.81 35.4027C129.81 34.3352 129.98 33.4598 130.322 32.7766C130.672 32.0934 131.142 31.5895 131.731 31.265C132.329 30.9404 132.995 30.7782 133.73 30.7782C134.054 30.7782 134.37 30.7995 134.678 30.8422C134.994 30.8849 135.301 30.9532 135.6 31.0472C135.796 31.107 135.933 31.1796 136.01 31.265C136.087 31.3418 136.125 31.4785 136.125 31.6749V32.4435C136.125 32.8705 135.942 33.084 135.574 33.084Z" fill="#291818"/>
<path d="M139.239 34.3907H140.776C141.417 34.3907 141.972 34.4718 142.442 34.6341C142.92 34.7963 143.287 35.0739 143.543 35.4667C143.808 35.8596 143.94 36.4062 143.94 37.1065C143.94 37.6957 143.829 38.174 143.607 38.5412C143.385 38.9084 143.103 39.186 142.762 39.3739C142.42 39.5618 142.07 39.6899 141.711 39.7582C141.353 39.8265 141.032 39.8607 140.751 39.8607H138.445C138.052 39.8607 137.855 39.6472 137.855 39.2202V31.4187C137.855 31.1796 137.898 31.013 137.983 30.9191C138.077 30.8251 138.223 30.7782 138.419 30.7782C138.966 30.7782 139.239 31.107 139.239 31.7646V34.3907ZM139.226 35.0696V39.1817H140.584C140.866 39.1817 141.152 39.1262 141.442 39.0152C141.741 38.9042 141.989 38.6992 142.185 38.4003C142.39 38.1014 142.493 37.6701 142.493 37.1065C142.493 36.577 142.407 36.167 142.237 35.8767C142.074 35.5778 141.844 35.3685 141.545 35.249C141.254 35.1294 140.913 35.0696 140.52 35.0696H139.226Z" fill="#291818"/>
<path d="M147.308 34.8775H147.577L151.343 31.0344C151.437 30.9404 151.523 30.8764 151.6 30.8422C151.685 30.7995 151.77 30.7782 151.856 30.7782C151.992 30.7782 152.103 30.8251 152.189 30.9191C152.274 31.0045 152.317 31.0942 152.317 31.1881C152.317 31.2479 152.296 31.2991 152.253 31.3418L148.602 34.9543L152.291 39.0152C152.343 39.075 152.385 39.1348 152.419 39.1945C152.454 39.2543 152.471 39.3184 152.471 39.3867C152.471 39.5063 152.424 39.6173 152.33 39.7198C152.236 39.8137 152.108 39.8607 151.945 39.8607C151.775 39.8607 151.6 39.8222 151.42 39.7454C151.241 39.6685 151.032 39.4977 150.792 39.233L147.577 35.582H147.308V39.028C147.308 39.3355 147.24 39.5532 147.103 39.6813C146.975 39.8009 146.778 39.8607 146.514 39.8607C146.121 39.8607 145.924 39.6472 145.924 39.2202V31.4187C145.924 31.1796 145.967 31.013 146.053 30.9191C146.146 30.8251 146.292 30.7782 146.488 30.7782C147.035 30.7782 147.308 31.107 147.308 31.7646V34.8775Z" fill="#291818"/>
<path d="M160.022 30.7782C160.415 30.7782 160.611 30.9917 160.611 31.4187V39.2202C160.611 39.4593 160.564 39.6258 160.47 39.7198C160.385 39.8137 160.244 39.8607 160.047 39.8607C159.501 39.8607 159.227 39.5319 159.227 38.8743V32.5588L155.077 39.4123C155.017 39.5148 154.936 39.6173 154.833 39.7198C154.731 39.8137 154.547 39.8607 154.283 39.8607C153.89 39.8607 153.693 39.6472 153.693 39.2202V31.4187C153.693 31.1796 153.736 31.013 153.821 30.9191C153.915 30.8251 154.061 30.7782 154.257 30.7782C154.804 30.7782 155.077 31.107 155.077 31.7646V38.08L159.227 31.2265C159.296 31.107 159.377 31.0045 159.471 30.9191C159.573 30.8251 159.757 30.7782 160.022 30.7782Z" fill="#291818"/>
<path d="M167.66 28.6517C167.702 28.404 167.796 28.2417 167.942 28.1649C168.095 28.088 168.266 28.0496 168.454 28.0496C168.599 28.0496 168.74 28.0837 168.877 28.1521C169.022 28.2118 169.095 28.3229 169.095 28.4851C169.095 29.0061 168.872 29.4032 168.428 29.6765C167.984 29.9412 167.386 30.0736 166.635 30.0736C165.883 30.0736 165.294 29.9412 164.867 29.6765C164.44 29.4117 164.209 29.0274 164.175 28.5236C164.175 28.3527 164.239 28.2332 164.367 28.1649C164.504 28.088 164.654 28.0496 164.816 28.0496C165.004 28.0496 165.17 28.088 165.315 28.1649C165.469 28.2417 165.567 28.404 165.61 28.6517C165.653 28.8908 165.747 29.1 165.892 29.2794C166.046 29.4587 166.293 29.5484 166.635 29.5484C166.985 29.5484 167.233 29.4587 167.378 29.2794C167.523 29.1 167.617 28.8908 167.66 28.6517ZM169.504 30.7782C169.897 30.7782 170.094 30.9917 170.094 31.4187V39.2202C170.094 39.4593 170.047 39.6258 169.953 39.7198C169.867 39.8137 169.727 39.8607 169.53 39.8607C168.983 39.8607 168.71 39.5319 168.71 38.8743V32.5588L164.56 39.4123C164.5 39.5148 164.419 39.6173 164.316 39.7198C164.214 39.8137 164.03 39.8607 163.765 39.8607C163.372 39.8607 163.176 39.6472 163.176 39.2202V31.4187C163.176 31.1796 163.219 31.013 163.304 30.9191C163.398 30.8251 163.543 30.7782 163.74 30.7782C164.286 30.7782 164.56 31.107 164.56 31.7646V38.08L168.71 31.2265C168.779 31.107 168.86 31.0045 168.954 30.9191C169.056 30.8251 169.24 30.7782 169.504 30.7782Z" fill="#291818"/>
<path d="M180.842 31.4571C181.116 31.0045 181.389 30.7782 181.662 30.7782C181.756 30.7782 181.841 30.8081 181.918 30.8678C182.004 30.9191 182.046 30.9917 182.046 31.0856C182.046 31.1369 182.034 31.1966 182.008 31.265C181.991 31.3333 181.957 31.4016 181.906 31.4699L179.753 34.9671L182.277 39.0921C182.345 39.2031 182.38 39.3226 182.38 39.4507C182.38 39.5618 182.333 39.66 182.239 39.7454C182.153 39.8222 182.034 39.8607 181.88 39.8607C181.615 39.8607 181.41 39.8094 181.265 39.707C181.12 39.5959 180.979 39.4251 180.842 39.1945L178.921 35.9279H178.869L176.858 39.1689C176.67 39.4849 176.508 39.6813 176.371 39.7582C176.235 39.8265 176.107 39.8607 175.987 39.8607C175.85 39.8607 175.752 39.8308 175.692 39.771C175.633 39.7112 175.603 39.6472 175.603 39.5789C175.603 39.5105 175.616 39.4379 175.641 39.3611C175.675 39.2842 175.71 39.2202 175.744 39.1689L178.306 35.1721L176.115 31.5212C176.055 31.4272 176.025 31.3247 176.025 31.2137C176.025 31.0942 176.072 30.9917 176.166 30.9063C176.269 30.8209 176.388 30.7782 176.525 30.7782C176.773 30.7782 176.973 30.8422 177.127 30.9703C177.281 31.0984 177.413 31.2607 177.524 31.4571L179.126 34.301H179.202L180.842 31.4571Z" fill="#291818"/>
<path d="M190.868 35.3258C190.868 35.6077 190.842 35.945 190.791 36.3378C190.74 36.7222 190.637 37.1193 190.483 37.5292C190.338 37.9391 190.12 38.3192 189.83 38.6693C189.548 39.0195 189.172 39.3056 188.703 39.5276C188.233 39.7497 187.648 39.8607 186.948 39.8607C186.247 39.8607 185.662 39.7497 185.193 39.5276C184.723 39.3056 184.347 39.0195 184.065 38.6693C183.783 38.3192 183.566 37.9391 183.412 37.5292C183.267 37.1193 183.169 36.7222 183.117 36.3378C183.075 35.945 183.053 35.6077 183.053 35.3258C183.053 35.0525 183.075 34.7237 183.117 34.3394C183.169 33.9466 183.267 33.5452 183.412 33.1353C183.566 32.7253 183.783 32.341 184.065 31.9823C184.347 31.6236 184.723 31.3333 185.193 31.1112C185.662 30.8892 186.247 30.7782 186.948 30.7782C187.648 30.7782 188.233 30.8892 188.703 31.1112C189.172 31.3333 189.548 31.6236 189.83 31.9823C190.12 32.341 190.338 32.7253 190.483 33.1353C190.637 33.5452 190.74 33.9466 190.791 34.3394C190.842 34.7237 190.868 35.0525 190.868 35.3258ZM189.42 35.3258C189.42 35.0696 189.403 34.7707 189.369 34.4291C189.343 34.0875 189.283 33.7459 189.189 33.4043C189.104 33.0541 188.972 32.7296 188.792 32.4307C188.613 32.1318 188.374 31.8927 188.075 31.7133C187.776 31.5254 187.4 31.4315 186.948 31.4315C186.504 31.4315 186.132 31.5254 185.833 31.7133C185.543 31.8927 185.308 32.1318 185.129 32.4307C184.949 32.7296 184.813 33.0541 184.719 33.4043C184.633 33.7459 184.573 34.0875 184.539 34.4291C184.514 34.7707 184.501 35.0696 184.501 35.3258C184.501 35.582 184.514 35.8809 184.539 36.2225C184.573 36.5556 184.633 36.8972 184.719 37.2474C184.813 37.5975 184.949 37.9221 185.129 38.221C185.308 38.5113 185.543 38.7505 185.833 38.9383C186.132 39.1177 186.504 39.2074 186.948 39.2074C187.4 39.2074 187.776 39.1177 188.075 38.9383C188.374 38.7505 188.613 38.5113 188.792 38.221C188.972 37.9221 189.104 37.5975 189.189 37.2474C189.283 36.8972 189.343 36.5556 189.369 36.2225C189.403 35.8809 189.42 35.582 189.42 35.3258Z" fill="#291818"/>
<path d="M194.209 36.3378V39.028C194.209 39.3355 194.141 39.5532 194.004 39.6813C193.876 39.8009 193.679 39.8607 193.415 39.8607C193.022 39.8607 192.825 39.6472 192.825 39.2202V31.4187C192.825 31.1796 192.868 31.013 192.953 30.9191C193.047 30.8251 193.193 30.7782 193.389 30.7782H195.528C195.725 30.7782 195.968 30.791 196.259 30.8166C196.557 30.8337 196.865 30.8849 197.181 30.9703C197.497 31.0557 197.792 31.1924 198.065 31.3803C198.347 31.5681 198.573 31.8286 198.744 32.1617C198.915 32.4862 199 32.909 199 33.4299C199 33.9594 198.876 34.4462 198.629 34.8903C198.381 35.3344 198.001 35.6888 197.488 35.9535C196.976 36.2097 196.327 36.3378 195.541 36.3378H194.209ZM194.209 31.4571V35.6589H195.528C196.143 35.6589 196.634 35.4838 197.002 35.1337C197.369 34.7835 197.552 34.2156 197.552 33.4299C197.552 32.8321 197.403 32.3538 197.104 31.9951C196.814 31.6365 196.288 31.4571 195.528 31.4571H194.209Z" fill="#291818"/>
<path d="M22.8015 1.0389L24.5239 1.88643C23.3574 3.78197 21.9722 5.46791 20.3682 6.94425C18.7825 8.42058 16.6682 9.8878 14.0254 11.3459C14.5357 13.9887 15.1645 16.103 15.9118 17.6887C16.6591 19.2926 17.6343 20.1857 18.8372 20.368V21.6256C18.6914 21.6438 18.5 21.6529 18.2631 21.6529C17.0419 21.6529 15.8572 20.8054 14.7089 19.1103C13.5788 17.4153 12.5581 14.9092 11.6468 11.592C10.8631 14.0525 9.66922 16.0028 8.06528 17.4426C6.46134 18.8643 4.7936 19.5751 3.06207 19.5751C2.16897 19.5751 1.43079 19.3291 0.847538 18.837C0.282513 18.3631 0 17.7069 0 16.8685C0 16.0119 0.382759 15.1279 1.14828 14.2166C1.91379 13.3052 2.96183 12.5397 4.29237 11.92L4.92119 12.9043C3.28079 14.0708 2.46059 15.1643 2.46059 16.185C2.46059 16.6771 2.62463 17.0781 2.95271 17.388C3.28079 17.6796 3.70912 17.8254 4.23769 17.8254C5.4771 17.8254 6.54336 17.3059 7.43646 16.267C8.34779 15.2099 9.15888 13.369 9.86971 10.7444C10.7628 7.44547 11.6741 5.28565 12.6037 4.26497C13.0229 3.79108 13.6335 3.27163 14.4355 2.70661C13.1778 2.74307 11.8929 2.96178 10.5806 3.36276C9.26824 3.74552 8.11996 4.32876 7.13572 5.1125C6.15148 5.878 5.65937 6.73464 5.65937 7.68241C5.65937 8.90358 6.21528 9.87869 7.3271 10.6077L6.7803 11.4553C5.75961 10.9632 4.95764 10.3252 4.37439 9.5415C3.79114 8.75777 3.49951 7.9467 3.49951 7.10828C3.49951 5.96002 4.12833 4.87555 5.38597 3.85488C6.6436 2.8342 8.18375 2.04135 10.0064 1.47633C11.8473 0.911318 13.6517 0.62881 15.4197 0.62881C16.5133 0.62881 17.0601 0.865752 17.0601 1.33964C17.0601 1.64949 16.7411 2.04135 16.1032 2.51524C14.9367 3.3901 14.0345 4.52925 13.3966 5.93268C12.7769 7.33611 12.2665 8.97649 11.8655 10.8538C13.9434 10.0883 15.9301 8.82156 17.8256 7.0536C19.7394 5.26742 21.3981 3.26252 22.8015 1.0389Z" fill="#BD0000"/>
<path d="M34.446 6.80755L35.5122 7.0536C35.494 7.18119 35.2297 7.73709 34.7194 8.72132C34.2272 9.68731 33.6987 10.9632 33.1336 12.5489C32.5686 14.1163 32.2041 15.702 32.04 17.3059L30.2903 17.1692C30.2903 16.1668 30.6093 14.8727 31.2472 13.287C31.0831 13.2688 30.746 13.2597 30.2356 13.2597C29.7435 13.2597 28.8322 13.3782 27.5016 13.6151C26.5721 15.6929 26.1073 17.47 26.1073 18.9463L24.2755 18.7003C24.2755 17.4062 24.7585 15.8114 25.7245 13.9158C24.795 14.0616 23.8654 14.2804 22.9358 14.572L22.6624 13.5057C22.6624 13.4511 23.1455 13.2961 24.1115 13.041C25.0957 12.7858 25.8248 12.6218 26.2987 12.5489C27.7568 9.1952 28.7501 7.25409 29.2787 6.72553L30.4543 7.1903C30.3632 7.37257 30.1536 7.78266 29.8255 8.42058C29.0053 10.0063 28.4494 11.2457 28.1578 12.1388C29.7435 11.9747 30.6913 11.8927 31.0011 11.8927C31.3292 11.8927 31.6026 11.9018 31.8213 11.92C33.0972 8.9856 33.9721 7.28143 34.446 6.80755Z" fill="#BD0000"/>
<path d="M36.9422 15.3922L37.9538 14.8454C38.0085 14.9183 38.0814 15.0823 38.1725 15.3375C38.3548 15.9207 38.5917 16.2124 38.8834 16.2124C39.5213 16.1759 40.1228 15.8843 40.6878 15.3375C41.271 14.7907 41.6173 14.2166 41.7267 13.6151C41.1435 13.7245 40.6696 13.7791 40.305 13.7791C39.9405 13.7791 39.6033 13.7609 39.2935 13.7245C39.0018 13.6698 38.7011 13.5786 38.3912 13.4511C37.7351 13.1959 37.407 12.558 37.407 11.5373C37.407 10.4984 37.9447 9.42303 39.0201 8.31122C40.0954 7.19942 41.3531 6.64351 42.793 6.64351C43.5585 6.64351 44.1417 6.91691 44.5427 7.4637C44.9437 8.01049 45.1442 8.96737 45.1442 10.3343C45.1442 10.8082 45.0804 11.5282 44.9528 12.4942C45.773 10.544 46.2013 8.68486 46.2378 6.91691L47.9329 7.21764C47.9329 8.49349 47.5319 10.4255 46.7299 13.0136C45.9462 15.6018 45.3265 17.2513 44.8708 17.9621L43.1484 17.634C43.6952 16.2124 43.9686 14.6267 43.9686 12.8769C43.9686 11.1272 43.841 9.97894 43.5858 9.43215C43.3124 8.83068 42.8568 8.52994 42.2188 8.52994C41.5991 8.52994 40.9976 8.73954 40.4144 9.15875C39.8494 9.57796 39.5577 10.0701 39.5395 10.6351C39.5213 11.2001 39.7218 11.6375 40.141 11.9474C40.5784 12.239 41.0523 12.4304 41.5627 12.5215C42.9479 12.7949 43.6405 13.1412 43.6405 13.5604C43.6405 13.9067 43.3033 14.4535 42.6289 15.2008C41.9545 15.9481 41.1708 16.6407 40.2777 17.2786C39.4028 17.8983 38.7284 18.2081 38.2545 18.2081C37.7989 18.2081 37.4526 17.9894 37.2156 17.552C36.9969 17.1328 36.8875 16.7409 36.8875 16.3764C36.8875 16.0119 36.9058 15.6838 36.9422 15.3922Z" fill="#BD0000"/>
<path d="M49.8627 17.2239C50.8469 15.3831 52.6605 13.4419 55.3033 11.4006C54.4831 10.7809 53.6629 10.0336 52.8427 9.15875C52.0408 8.26566 51.5942 7.49104 51.5031 6.83489L53.1435 6.64351C53.2528 7.20853 54.2826 8.41147 56.2329 10.2523C56.3058 9.15875 56.3422 7.8829 56.3422 6.42479L58.1193 6.58883L57.8459 9.84224C60.0878 8.25654 61.5642 7.33611 62.275 7.08094L63.478 8.14719C62.84 8.34768 61.8102 8.91269 60.3886 9.84224C58.9669 10.7718 58.1376 11.355 57.9006 11.592C58.3927 12.2481 59.1218 13.0045 60.0878 13.8612C61.0538 14.6996 61.9014 15.3831 62.6304 15.9116L63.724 16.6771L62.9312 17.6614C62.4026 17.3515 61.5186 16.7591 60.2792 15.8843C59.058 14.9912 58.1285 14.2075 57.4905 13.5331C57.2354 15.5562 56.9802 17.0143 56.725 17.9074L55.0573 18.1261C55.4947 17.2513 55.841 15.4651 56.0962 12.7676C55.6952 12.8952 55.0482 13.3964 54.155 14.2712C53.2619 15.1279 52.4691 15.9663 51.7765 16.7865L50.7102 17.9894L49.8627 17.2239Z" fill="#BD0000"/>
<path d="M76.9677 14.6813L77.5965 15.1461C77.3413 15.6929 76.8674 16.2124 76.1748 16.7045C75.5004 17.1966 74.8807 17.4426 74.3157 17.4426C73.2403 17.4426 72.7026 16.8776 72.7026 15.7476C72.7026 15.219 72.8393 14.5902 73.1127 13.8612L72.1012 14.9001C71.1169 15.9025 70.2603 16.5769 69.5312 16.9232C68.8204 17.2695 68.1186 17.4426 67.426 17.4426C66.7334 17.4426 66.2048 17.2513 65.8403 16.8685C65.494 16.4675 65.3208 15.9207 65.3208 15.2281C65.3208 13.9523 65.813 12.6947 66.7972 11.4553C67.7814 10.1977 69.0391 9.17698 70.5701 8.39324C72.1012 7.60951 73.6322 7.20853 75.1632 7.1903L75.2179 8.09251L74.0696 8.33856C72.411 8.70309 70.9438 9.43215 69.6679 10.5257C68.4103 11.6193 67.7814 12.7129 67.7814 13.8065C67.7814 14.8818 68.2189 15.4195 69.0938 15.4195C69.914 15.4195 70.9255 14.8454 72.1285 13.6971C73.3315 12.5489 74.3339 11.2001 75.1359 9.65086L76.2842 10.3343C75.1541 12.6126 74.5891 14.0616 74.5891 14.6813C74.5891 14.9365 74.6711 15.1552 74.8351 15.3375C75.0174 15.5015 75.1906 15.5835 75.3546 15.5835C75.5369 15.5835 75.6553 15.5744 75.71 15.5562C75.7647 15.538 75.8194 15.5198 75.8741 15.5015C75.9287 15.4651 75.9925 15.4195 76.0654 15.3648C76.1566 15.3101 76.2295 15.2555 76.2842 15.2008C76.3571 15.1461 76.4664 15.0641 76.6122 14.9547C76.758 14.8454 76.8765 14.7542 76.9677 14.6813Z" fill="#BD0000"/>
<path d="M108.893 12.4942L108.866 13.5604L107.362 13.6151C107.143 14.8909 106.788 15.9207 106.296 16.7045C105.822 17.4882 105.02 18.3357 103.89 19.247C102.76 20.1584 101.402 20.9148 99.8164 21.5162C98.2489 22.1359 96.9366 22.4458 95.8794 22.4458C94.8223 22.4458 94.0203 22.2271 93.4735 21.7896C92.9267 21.3704 92.6533 20.8145 92.6533 20.1219C92.6533 19.0648 93.273 18.0077 94.5124 16.9505C95.7701 15.8752 97.2829 14.9821 99.0508 14.2712C100.837 13.5422 102.605 13.0501 104.355 12.7949C104.081 12.3393 103.662 11.9656 103.097 11.674C102.55 11.3824 101.612 11.0543 100.281 10.6898C99.5521 10.4893 99.1875 10.1612 99.1875 9.70554C99.1875 9.43215 99.2969 9.18609 99.5156 8.96737C99.7526 8.73043 100.135 8.45704 100.664 8.14719C101.211 7.81911 101.721 7.49104 102.195 7.16296C102.687 6.81666 103.225 6.40657 103.808 5.93268C104.409 5.4588 104.911 4.96668 105.312 4.45635C105.713 3.94601 105.913 3.49946 105.913 3.11671C105.913 2.47879 105.594 2.15982 104.956 2.15982C104.464 2.15982 103.79 2.39677 102.933 2.87065C102.095 3.32631 101.265 3.91867 100.445 4.64772L99.2696 8.3659C98.4494 10.9723 97.538 12.9954 96.5356 14.4353C95.5513 15.8752 94.6127 16.5951 93.7196 16.5951C92.7718 16.5951 92.2979 16.0119 92.2979 14.8454C92.2979 13.6789 92.8629 12.1934 93.993 10.389C95.123 8.56639 96.6905 6.69819 98.6954 4.78442C98.6954 4.76619 98.741 4.60216 98.8321 4.29231C98.9415 3.96423 99.0417 3.63616 99.1329 3.30809C99.4427 2.32386 99.6797 1.69505 99.8437 1.42166L101.183 1.64037C101.183 1.98667 101.11 2.39677 100.965 2.87065C101.985 2.10514 103.061 1.43988 104.191 0.874866C105.339 0.291622 106.177 0 106.706 0C107.253 0 107.69 0.17315 108.018 0.519451C108.346 0.847526 108.51 1.33964 108.51 1.99579C108.51 2.63371 108.201 3.37188 107.581 4.21029C106.979 5.0487 106.223 5.8051 105.312 6.47947C103.653 7.71887 102.24 8.61196 101.074 9.15875C102.97 9.45037 104.355 9.84224 105.23 10.3343C106.105 10.8082 106.742 11.5282 107.143 12.4942H108.893ZM94.6765 14.0525C95.1686 14.0525 95.9067 12.8769 96.891 10.5257C97.3102 9.48682 97.62 8.62107 97.8205 7.92847C98.0393 7.23587 98.1486 6.85311 98.1486 6.78021C97.1644 7.85556 96.2713 9.08584 95.4693 10.471C94.6673 11.8563 94.2663 12.8587 94.2663 13.4784C94.2663 13.8612 94.4031 14.0525 94.6765 14.0525ZM101.949 18.9736C102.842 18.3722 103.553 17.6978 104.081 16.9505C104.61 16.2032 104.874 15.5015 104.874 14.8454C104.874 14.5355 104.829 14.2257 104.738 13.9158C102.004 14.2439 99.7526 14.9638 97.9846 16.0757C96.2166 17.1692 95.3326 18.2173 95.3326 19.2197C95.3326 19.6571 95.5058 20.0034 95.8521 20.2586C96.1984 20.532 96.6723 20.6687 97.2737 20.6687C98.7501 20.6687 100.308 20.1037 101.949 18.9736Z" fill="#BD0000"/>
<path d="M118.312 9.32279C118.786 10.1065 119.023 10.9723 119.023 11.92C119.023 13.3964 118.513 14.7178 117.492 15.8843C116.472 17.0325 115.269 17.6067 113.883 17.6067C112.826 17.6067 111.997 17.3059 111.395 16.7045C110.812 16.0848 110.521 15.2372 110.521 14.1619C110.521 12.4304 111.195 10.8811 112.544 9.51416C113.893 8.12896 115.405 7.43636 117.082 7.43636C117.392 7.43636 117.611 7.44547 117.738 7.4637L117.82 8.3659C116.362 8.3659 115.15 8.78511 114.184 9.62352C113.218 10.4619 112.735 11.5373 112.735 12.8496C112.735 13.6333 112.926 14.2712 113.309 14.7634C113.692 15.2372 114.248 15.4742 114.977 15.4742C115.724 15.4742 116.317 15.1461 116.754 14.49C117.192 13.8338 117.41 13.0683 117.41 12.1934C117.41 11.3003 117.237 10.4893 116.891 9.76022L118.312 9.32279Z" fill="#BD0000"/>
<path d="M121.336 15.0368L122.703 14.3533C122.703 14.6813 122.821 14.9638 123.058 15.2008C123.313 15.4377 123.605 15.5562 123.933 15.5562C125.482 15.5562 127.25 13.5149 129.237 9.43215C129.346 9.1952 129.474 8.93092 129.62 8.6393C129.766 8.32945 129.875 8.10162 129.948 7.95581C130.021 7.79177 130.103 7.60951 130.194 7.40902C130.303 7.20853 130.385 7.06272 130.44 6.97159C130.513 6.86223 130.586 6.76198 130.659 6.67085C130.823 6.50681 131.005 6.42479 131.206 6.42479C131.424 6.42479 131.616 6.52504 131.78 6.72553C131.944 6.92602 132.026 7.16296 132.026 7.43636C132.026 7.69153 131.679 8.82156 130.987 10.8265C130.312 12.8131 129.975 14.0161 129.975 14.4353C129.975 14.8545 130.057 15.1643 130.221 15.3648C130.404 15.5653 130.577 15.6656 130.741 15.6656C130.923 15.6656 131.06 15.6565 131.151 15.6382C131.242 15.62 131.333 15.5835 131.424 15.5289C131.515 15.4742 131.588 15.4286 131.643 15.3922C131.716 15.3557 131.798 15.2919 131.889 15.2008L132.08 14.9821C132.135 14.9456 132.208 14.8727 132.299 14.7634C132.409 14.6358 132.481 14.5538 132.518 14.5173L133.092 14.9821C132.782 15.7476 132.29 16.3946 131.616 16.9232C130.96 17.4517 130.358 17.716 129.811 17.716C129.283 17.716 128.863 17.5338 128.554 17.1692C128.244 16.7865 128.089 16.2944 128.089 15.6929C128.089 15.0914 128.189 14.3168 128.39 13.369C127.551 14.6813 126.631 15.6838 125.628 16.3764C124.626 17.0508 123.815 17.388 123.195 17.388C122.575 17.388 122.11 17.1601 121.801 16.7045C121.491 16.2488 121.336 15.6929 121.336 15.0368Z" fill="#BD0000"/>
<path d="M141.217 11.2092C142.219 11.1728 142.72 11.5829 142.72 12.4395C142.72 13.5695 142.11 14.6905 140.889 15.8023C139.686 16.8958 138.474 17.4426 137.252 17.4426C136.104 17.4426 135.53 16.668 135.53 15.1188C135.53 13.8976 135.831 12.3848 136.432 10.5804C137.052 8.75777 137.562 7.47281 137.963 6.72553L139.194 7.13562C138.72 8.52083 138.237 10.2159 137.745 12.2208C139.203 11.5464 140.36 11.2092 141.217 11.2092ZM140.779 14.0252C140.889 13.7882 140.943 13.5513 140.943 13.3144C140.889 12.8222 140.46 12.5762 139.658 12.5762C139.276 12.5762 138.565 12.7402 137.526 13.0683C137.38 13.6151 137.307 14.1072 137.307 14.5446C137.307 14.9638 137.407 15.301 137.608 15.5562C137.827 15.8114 138.109 15.939 138.455 15.939C138.82 15.939 139.248 15.7567 139.74 15.3922C140.232 15.0094 140.579 14.5538 140.779 14.0252Z" fill="#BD0000"/>
<path d="M154.325 6.80755L155.391 7.0536C155.373 7.18119 155.109 7.73709 154.599 8.72132C154.106 9.68731 153.578 10.9632 153.013 12.5489C152.448 14.1163 152.083 15.702 151.919 17.3059L150.169 17.1692C150.169 16.1668 150.488 14.8727 151.126 13.287C150.962 13.2688 150.625 13.2597 150.115 13.2597C149.623 13.2597 148.711 13.3782 147.381 13.6151C146.451 15.6929 145.986 17.47 145.986 18.9463L144.155 18.7003C144.155 17.4062 144.638 15.8114 145.604 13.9158C144.674 14.0616 143.745 14.2804 142.815 14.572L142.542 13.5057C142.542 13.4511 143.025 13.2961 143.991 13.041C144.975 12.7858 145.704 12.6218 146.178 12.5489C147.636 9.1952 148.629 7.25409 149.158 6.72553L150.333 7.1903C150.242 7.37257 150.033 7.78266 149.705 8.42058C148.884 10.0063 148.329 11.2457 148.037 12.1388C149.623 11.9747 150.57 11.8927 150.88 11.8927C151.208 11.8927 151.482 11.9018 151.7 11.92C152.976 8.9856 153.851 7.28143 154.325 6.80755Z" fill="#BD0000"/>
<path d="M168.003 14.2439L168.578 14.7087C168.268 15.4742 167.776 16.1212 167.101 16.6498C166.445 17.1784 165.844 17.4426 165.297 17.4426C164.768 17.4426 164.349 17.2604 164.039 16.8958C163.729 16.5131 163.574 16.021 163.574 15.4195C163.574 14.818 163.675 14.0434 163.875 13.0956C163.018 14.4444 162.098 15.5015 161.114 16.267C160.13 17.0325 159.3 17.4153 158.626 17.4153C157.605 17.4153 157.095 16.8047 157.095 15.5835C157.095 14.3624 157.514 12.722 158.352 10.6624C159.209 8.58462 159.82 7.3999 160.184 7.10828L161.497 7.68241C160.749 8.88535 160.184 10.0701 159.801 11.2366C159.419 12.403 159.227 13.1868 159.227 13.5878C159.227 13.9705 159.346 14.2804 159.583 14.5173C159.838 14.7542 160.13 14.8727 160.458 14.8727C161.187 14.8727 162.089 14.2075 163.164 12.8769C164.258 11.5282 165.37 9.52328 166.5 6.86223L167.894 7.49104C167.858 7.63685 167.438 8.69398 166.636 10.6624C165.853 12.6309 165.461 13.8156 165.461 14.2166C165.461 14.5993 165.543 14.8909 165.707 15.0914C165.889 15.2919 166.062 15.3922 166.226 15.3922C166.409 15.3922 166.545 15.3831 166.636 15.3648C166.728 15.3466 166.819 15.3101 166.91 15.2555C167.001 15.2008 167.074 15.1552 167.129 15.1188C167.201 15.0823 167.283 15.0185 167.375 14.9274L167.566 14.7087C167.621 14.6722 167.694 14.5993 167.785 14.49C167.894 14.3624 167.967 14.2804 168.003 14.2439Z" fill="#BD0000"/>
<path d="M180.771 14.7634C181.19 14.3259 181.637 13.8976 182.111 13.4784C182.585 13.041 183.004 12.8222 183.368 12.8222C183.751 12.8222 184.043 12.9407 184.243 13.1777C184.462 13.3964 184.571 13.688 184.571 14.0525C184.571 14.9821 183.824 16.9779 182.33 20.0399L181.045 19.9579C181.045 19.9396 181.309 19.3108 181.837 18.0714C182.384 16.8503 182.658 16.0028 182.658 15.5289C182.658 15.055 182.503 14.818 182.193 14.818C181.956 14.818 181.546 15.2555 180.963 16.1303C180.744 16.4584 180.416 16.7591 179.978 17.0325C179.559 17.3059 179.103 17.4426 178.611 17.4426C178.137 17.4426 177.746 17.2513 177.436 16.8685C177.126 16.4858 176.971 16.0028 176.971 15.4195C176.971 14.8363 177.071 14.0981 177.272 13.205C176.415 14.5355 175.495 15.5744 174.51 16.3217C173.544 17.069 172.724 17.4426 172.05 17.4426C171.029 17.4426 170.519 16.8321 170.519 15.6109C170.519 14.3897 170.938 12.7493 171.776 10.6898C172.633 8.61196 173.244 7.42724 173.608 7.13562L174.92 7.70975C174.173 8.91269 173.608 10.0974 173.225 11.2639C172.843 12.4304 172.651 13.2141 172.651 13.6151C172.651 13.9979 172.77 14.3077 173.007 14.5446C173.262 14.7816 173.553 14.9001 173.882 14.9001C174.611 14.9001 175.513 14.2348 176.588 12.9043C177.682 11.5555 178.794 9.55062 179.924 6.88957L181.318 7.51838C181.282 7.66419 180.862 8.72132 180.06 10.6898C179.277 12.6582 178.885 13.8429 178.885 14.2439C178.885 14.6267 178.967 14.9183 179.131 15.1188C179.313 15.301 179.532 15.3922 179.787 15.3922C180.042 15.3922 180.37 15.1826 180.771 14.7634Z" fill="#BD0000"/>
<path d="M185.523 15.3922L186.535 14.8454C186.589 14.9183 186.662 15.0823 186.753 15.3375C186.936 15.9207 187.172 16.2124 187.464 16.2124C188.102 16.1759 188.704 15.8843 189.269 15.3375C189.852 14.7907 190.198 14.2166 190.307 13.6151C189.724 13.7245 189.25 13.7791 188.886 13.7791C188.521 13.7791 188.184 13.7609 187.874 13.7245C187.583 13.6698 187.282 13.5786 186.972 13.4511C186.316 13.1959 185.988 12.558 185.988 11.5373C185.988 10.4984 186.525 9.42303 187.601 8.31122C188.676 7.19942 189.934 6.64351 191.374 6.64351C192.139 6.64351 192.722 6.91691 193.123 7.4637C193.524 8.01049 193.725 8.96737 193.725 10.3343C193.725 10.8082 193.661 11.5282 193.534 12.4942C194.354 10.544 194.782 8.68486 194.819 6.91691L196.514 7.21764C196.514 8.49349 196.113 10.4255 195.311 13.0136C194.527 15.6018 193.907 17.2513 193.452 17.9621L191.729 17.634C192.276 16.2124 192.549 14.6267 192.549 12.8769C192.549 11.1272 192.422 9.97894 192.167 9.43215C191.893 8.83068 191.438 8.52994 190.8 8.52994C190.18 8.52994 189.578 8.73954 188.995 9.15875C188.43 9.57796 188.138 10.0701 188.12 10.6351C188.102 11.2001 188.303 11.6375 188.722 11.9474C189.159 12.239 189.633 12.4304 190.143 12.5215C191.529 12.7949 192.221 13.1412 192.221 13.5604C192.221 13.9067 191.884 14.4535 191.21 15.2008C190.535 15.9481 189.752 16.6407 188.858 17.2786C187.984 17.8983 187.309 18.2081 186.835 18.2081C186.38 18.2081 186.033 17.9894 185.796 17.552C185.578 17.1328 185.468 16.7409 185.468 16.3764C185.468 16.0119 185.487 15.6838 185.523 15.3922Z" fill="#BD0000"/>
</svg>
